<svg xmlns="http://www.w3.org/2000/svg" xmlns:xlink="http://www.w3.org/1999/xlink" width="113" height="113" viewBox="0 0 113 113">
  <defs>
    <filter id="Trazado_982547" x="0" y="0" width="113" height="113" filterUnits="userSpaceOnUse">
      <feOffset dy="3" input="SourceAlpha"/>
      <feGaussianBlur stdDeviation="3" result="blur"/>
      <feFlood flood-opacity="0.161"/>
      <feComposite operator="in" in2="blur"/>
      <feComposite in="SourceGraphic"/>
    </filter>
  </defs>
  <g id="Grupo_1176793" data-name="Grupo 1176793" transform="translate(-271.5 -1344.641)">
    <g id="Grupo_1176296" data-name="Grupo 1176296" transform="translate(0 46.496)">
      <g id="Grupo_1171046" data-name="Grupo 1171046" transform="translate(280.5 1304.145)">
        <g id="Grupo_1148525" data-name="Grupo 1148525" transform="translate(0)">
          <g transform="matrix(1, 0, 0, 1, -9, -6)" filter="url(#Trazado_982547)">
            <g id="Trazado_982547-2" data-name="Trazado 982547" transform="translate(9 6)" fill="#f2f8ff">
              <path d="M 47.5 93.5 C 41.28937149047852 93.5 35.26533508300781 92.28397369384766 29.59518623352051 89.88570404052734 C 24.11771965026855 87.56893157958984 19.19813346862793 84.25196075439453 14.97309303283691 80.02691650390625 C 10.74804019927979 75.80186462402344 7.431066513061523 70.88229370117188 5.114293098449707 65.40481567382812 C 2.716026782989502 59.73468017578125 1.5 53.71062850952148 1.5 47.5 C 1.5 41.28937149047852 2.716026782989502 35.26533508300781 5.114293098449707 29.59518623352051 C 7.431066513061523 24.11771965026855 10.74804019927979 19.19813346862793 14.97309303283691 14.97309303283691 C 19.19813346862793 10.74804019927979 24.11771965026855 7.431066513061523 29.59518623352051 5.114293098449707 C 35.26533508300781 2.716026782989502 41.28937149047852 1.5 47.5 1.5 C 53.71062850952148 1.5 59.73468017578125 2.716026782989502 65.40481567382812 5.114293098449707 C 70.88229370117188 7.431066513061523 75.80186462402344 10.74804019927979 80.02691650390625 14.97309303283691 C 84.25196075439453 19.19813346862793 87.56893157958984 24.11771965026855 89.88570404052734 29.59518623352051 C 92.28397369384766 35.26533508300781 93.5 41.28937149047852 93.5 47.5 C 93.5 53.71062850952148 92.28397369384766 59.73468017578125 89.88570404052734 65.40481567382812 C 87.56893157958984 70.88229370117188 84.25196075439453 75.80186462402344 80.02691650390625 80.02691650390625 C 75.80186462402344 84.25196075439453 70.88229370117188 87.56893157958984 65.40481567382812 89.88570404052734 C 59.73468017578125 92.28397369384766 53.71062850952148 93.5 47.5 93.5 Z" stroke="none"/>
              <path d="M 47.5 3 C 41.49121475219727 3 35.66376876831055 4.176155090332031 30.17950439453125 6.495796203613281 C 24.88084411621094 8.736953735351562 20.12152099609375 11.94598388671875 16.03375244140625 16.03375244140625 C 11.94598388671875 20.12152099609375 8.736953735351562 24.88084411621094 6.495796203613281 30.17950439453125 C 4.176155090332031 35.66376876831055 3 41.49121475219727 3 47.5 C 3 53.50878524780273 4.176155090332031 59.33623123168945 6.495796203613281 64.82049560546875 C 8.736953735351562 70.11915588378906 11.94598388671875 74.87847900390625 16.03375244140625 78.96624755859375 C 20.12152099609375 83.05401611328125 24.88084411621094 86.26304626464844 30.17950439453125 88.50419616699219 C 35.66376876831055 90.82384490966797 41.49121475219727 92 47.5 92 C 53.50878524780273 92 59.33623123168945 90.82384490966797 64.82049560546875 88.50419616699219 C 70.11915588378906 86.26304626464844 74.87847900390625 83.05401611328125 78.96624755859375 78.96624755859375 C 83.05401611328125 74.87847900390625 86.26304626464844 70.11915588378906 88.50419616699219 64.82049560546875 C 90.82384490966797 59.33623123168945 92 53.50878524780273 92 47.5 C 92 41.49121475219727 90.82384490966797 35.66376876831055 88.50419616699219 30.17950439453125 C 86.26304626464844 24.88084411621094 83.05401611328125 20.12152099609375 78.96624755859375 16.03375244140625 C 74.87847900390625 11.94598388671875 70.11915588378906 8.736953735351562 64.82049560546875 6.495796203613281 C 59.33623123168945 4.176155090332031 53.50878524780273 3 47.5 3 M 47.5 0 C 73.7335205078125 0 95 21.2664794921875 95 47.5 C 95 73.7335205078125 73.7335205078125 95 47.5 95 C 21.2664794921875 95 0 73.7335205078125 0 47.5 C 0 21.2664794921875 21.2664794921875 0 47.5 0 Z" stroke="none" fill="#2d3bf3"/>
            </g>
          </g>
        </g>
      </g>
    </g>
    <g id="funnel_13142536" transform="translate(275.682 1327.804)">
      <path id="Trazado_1033080" data-name="Trazado 1033080" d="M400,104h8.358v5.224H400Z" transform="translate(-332.624 -48.687)" fill="#4981cc"/>
      <path id="Trazado_1033081" data-name="Trazado 1033081" d="M233.914,136H217.2a3.7,3.7,0,0,0-2.614,1.083l-13.505,13.505A3.7,3.7,0,0,0,200,153.2v20.89a3.7,3.7,0,0,0,3.7,3.7h30.216a3.7,3.7,0,0,0,3.7-3.7V139.7a3.7,3.7,0,0,0-3.7-3.7ZM218.7,144.791l-8.865,8.865a2.089,2.089,0,0,1-2.955-2.955l8.865-8.865a2.089,2.089,0,1,1,2.955,2.955Z" transform="translate(-158.742 -76.508)" fill="#376199"/>
      <path id="Trazado_1033082" data-name="Trazado 1033082" d="M384,56h12.537v6.268H384Z" transform="translate(-318.713 -6.955)" fill="#d15c5d"/>
      <path id="Trazado_1033083" data-name="Trazado 1033083" d="M416,56h4.179v6.268H416Z" transform="translate(-346.534 -6.955)" fill="#592728"/>
      <path id="Trazado_1033084" data-name="Trazado 1033084" d="M271.559,222.3H251.6a3.6,3.6,0,0,1-3.6-3.6v-6.4a3.6,3.6,0,0,1,1.056-2.549l16.694-16.694A3.6,3.6,0,0,1,268.3,192h3.261a3.6,3.6,0,0,1,3.6,3.6v23.089a3.6,3.6,0,0,1-3.6,3.6Z" transform="translate(-200.474 -125.195)" fill="#d15c5d"/>
      <path id="Trazado_1033085" data-name="Trazado 1033085" d="M286.268,325.225a3.134,3.134,0,1,1-6.268,0c0-1.731,3.134-5.224,3.134-5.224S286.268,323.494,286.268,325.225Z" transform="translate(-228.295 -236.479)" fill="#d1a654"/>
      <path id="Trazado_1033086" data-name="Trazado 1033086" d="M376,325.225a3.134,3.134,0,1,0,6.268,0c0-1.731-3.134-5.224-3.134-5.224S376,323.494,376,325.225Z" transform="translate(-311.758 -236.479)" fill="#d1a654"/>
      <path id="Trazado_1033087" data-name="Trazado 1033087" d="M322.448,289.4a5.224,5.224,0,0,1-10.447,0c0-2.885,5.224-9.4,5.224-9.4S322.448,286.518,322.448,289.4Z" transform="translate(-256.116 -201.702)" fill="#eebd60"/>
      <path id="Trazado_1033088" data-name="Trazado 1033088" d="M26.214,56H55.759a.8.8,0,0,1,.569,1.374L45.48,68.222A4.641,4.641,0,0,0,44.121,71.5v7.481l-6.268,3.134V71.5a4.64,4.64,0,0,0-1.359-3.282L25.645,57.374A.8.8,0,0,1,26.214,56Z" transform="translate(-6.95 -6.955)" fill="#d15c5d"/>
      <path id="Trazado_1033089" data-name="Trazado 1033089" d="M25.645,57.374l2.805,2.805H53.524l2.805-2.805A.8.8,0,0,0,55.759,56H26.214A.8.8,0,0,0,25.645,57.374Z" transform="translate(-6.95 -6.955)" fill="#4981cc"/>
      <path id="Trazado_1033090" data-name="Trazado 1033090" d="M126.268,293.224a3.134,3.134,0,1,1-6.268,0c0-1.731,3.134-5.224,3.134-5.224S126.268,291.493,126.268,293.224Z" transform="translate(-89.19 -208.658)" fill="#d1a654"/>
      <path id="Trazado_1033091" data-name="Trazado 1033091" d="M126.268,397.224a3.134,3.134,0,1,1-6.268,0c0-1.731,3.134-5.224,3.134-5.224S126.268,395.493,126.268,397.224Z" transform="translate(-89.19 -299.076)" fill="#d1a654"/>
      <g id="Grupo_1176792" data-name="Grupo 1176792" transform="translate(17.413 48)">
        <path id="Trazado_1033092" data-name="Trazado 1033092" d="M243.145,183.144a3.113,3.113,0,0,0,2.216-.918l8.865-8.865a3.134,3.134,0,0,0-4.432-4.432l-8.865,8.865a3.134,3.134,0,0,0,2.216,5.351Zm-.739-3.873,8.865-8.865a1.045,1.045,0,0,1,1.478,1.478l-8.865,8.865a1.045,1.045,0,1,1-1.477-1.478Z" transform="translate(-210.942 -152.339)"/>
        <path id="Trazado_1033093" data-name="Trazado 1033093" d="M228.566,58.728V56.358h1.045a1.045,1.045,0,0,0,1.045-1.045V49.045A1.045,1.045,0,0,0,229.611,48H217.074a1.045,1.045,0,0,0-1.045,1.045v6.268a1.045,1.045,0,0,0,1.045,1.045h1.045v2.089h-7.871a4.711,4.711,0,0,0-3.353,1.389L193.389,73.342A4.711,4.711,0,0,0,192,76.695v20.89a4.747,4.747,0,0,0,4.742,4.742h30.216a4.747,4.747,0,0,0,4.742-4.742v-34.4A4.75,4.75,0,0,0,228.566,58.728Zm-2.089-8.639h2.089v4.179h-2.089Zm-4.179,0h2.089v4.179H222.3Zm4.179,6.268v2.089h-6.268V56.358Zm-8.358-6.268h2.09v4.179h-2.09Zm11.492,47.5a2.655,2.655,0,0,1-2.652,2.652H196.742a2.655,2.655,0,0,1-2.652-2.652V76.695a2.636,2.636,0,0,1,.777-1.876l13.505-13.505a2.635,2.635,0,0,1,1.876-.777h16.711a2.655,2.655,0,0,1,2.652,2.652Z" transform="translate(-169.2 -48)"/>
        <path id="Trazado_1033094" data-name="Trazado 1033094" d="M264.6,184h-3.261a4.618,4.618,0,0,0-3.287,1.362l-16.694,16.694A4.618,4.618,0,0,0,240,205.343v6.4a4.654,4.654,0,0,0,4.649,4.649H264.6a4.654,4.654,0,0,0,4.649-4.649V188.649A4.654,4.654,0,0,0,264.6,184Zm2.559,27.738A2.562,2.562,0,0,1,264.6,214.3H244.649a2.562,2.562,0,0,1-2.559-2.559v-6.4a2.543,2.543,0,0,1,.75-1.81l16.694-16.694a2.543,2.543,0,0,1,1.81-.75H264.6a2.562,2.562,0,0,1,2.559,2.559v23.089Z" transform="translate(-210.932 -166.239)"/>
        <path id="Trazado_1033095" data-name="Trazado 1033095" d="M288.716,277.224a1.044,1.044,0,0,0-.778.347c-.019.022-.28.314-.649.765a45.792,45.792,0,0,0-4.027-5.944,1.045,1.045,0,0,0-1.63,0,45.8,45.8,0,0,0-4.027,5.945c-.368-.451-.629-.743-.649-.765a1.045,1.045,0,0,0-.778-.347h0a1.045,1.045,0,0,0-.778.347c-.034.037-.83.928-1.638,2.051-1.187,1.65-1.764,2.916-1.764,3.871a4.18,4.18,0,0,0,6.266,3.621,6.254,6.254,0,0,0,8.363,0,4.179,4.179,0,0,0,6.266-3.621c0-2.028-2.833-5.288-3.4-5.921a1.045,1.045,0,0,0-.778-.347Zm-12.537,8.358a2.092,2.092,0,0,1-2.09-2.089,9.168,9.168,0,0,1,2.084-3.6c.139.174.288.367.442.57a5.948,5.948,0,0,0-.436,1.989,6.229,6.229,0,0,0,.76,2.99A2.084,2.084,0,0,1,276.179,285.582Zm6.268,1.045a4.184,4.184,0,0,1-4.179-4.179c0-1.59,2.307-5.194,4.179-7.695,1.872,2.5,4.179,6.105,4.179,7.695A4.184,4.184,0,0,1,282.447,286.627Zm6.268-1.045a2.084,2.084,0,0,1-.76-.144,6.23,6.23,0,0,0,.76-2.99,5.947,5.947,0,0,0-.436-1.989c.153-.2.3-.4.442-.57a9.168,9.168,0,0,1,2.084,3.6A2.092,2.092,0,0,1,288.716,285.582Z" transform="translate(-238.753 -242.747)"/>
        <path id="Trazado_1033096" data-name="Trazado 1033096" d="M50.518,49.142A1.844,1.844,0,0,0,48.809,48H19.263a1.85,1.85,0,0,0-1.308,3.157L28.8,62.006a3.573,3.573,0,0,1,1.053,2.543V75.163a1.045,1.045,0,0,0,1.512.934l6.268-3.134a1.045,1.045,0,0,0,.577-.934v-7.48a3.573,3.573,0,0,1,1.053-2.543L50.117,51.157A1.844,1.844,0,0,0,50.518,49.142ZM37.791,60.528a5.648,5.648,0,0,0-1.665,4.02v6.835l-4.179,2.09V64.549a5.648,5.648,0,0,0-1.665-4.02l-6.26-6.26H44.051Zm8.349-8.349H21.932l-2.089-2.089H48.23Z" transform="translate(-17.413 -48)"/>
        <path id="Trazado_1033097" data-name="Trazado 1033097" d="M116.179,280a1.045,1.045,0,0,0-.778.347c-.034.037-.831.928-1.638,2.051-1.187,1.65-1.764,2.916-1.764,3.871a4.179,4.179,0,1,0,8.358,0c0-2.028-2.833-5.289-3.4-5.921A1.045,1.045,0,0,0,116.179,280Zm0,8.358a2.092,2.092,0,0,1-2.089-2.089,9.185,9.185,0,0,1,2.089-3.611,9.184,9.184,0,0,1,2.09,3.611A2.092,2.092,0,0,1,116.179,288.358Z" transform="translate(-99.648 -249.702)"/>
        <path id="Trazado_1033098" data-name="Trazado 1033098" d="M116.179,384a1.045,1.045,0,0,0-.778.347c-.034.037-.831.928-1.638,2.051-1.187,1.65-1.764,2.916-1.764,3.871a4.179,4.179,0,1,0,8.358,0c0-2.028-2.833-5.289-3.4-5.922A1.045,1.045,0,0,0,116.179,384Zm0,8.358a2.092,2.092,0,0,1-2.089-2.089,9.185,9.185,0,0,1,2.089-3.611,9.184,9.184,0,0,1,2.09,3.611A2.092,2.092,0,0,1,116.179,392.358Z" transform="translate(-99.648 -340.121)"/>
      </g>
    </g>
  </g>
</svg>
