<svg xmlns="http://www.w3.org/2000/svg" xmlns:xlink="http://www.w3.org/1999/xlink" width="113" height="113" viewBox="0 0 113 113">
  <defs>
    <filter id="Trazado_982547" x="0" y="0" width="113" height="113" filterUnits="userSpaceOnUse">
      <feOffset dy="3" input="SourceAlpha"/>
      <feGaussianBlur stdDeviation="3" result="blur"/>
      <feFlood flood-opacity="0.161"/>
      <feComposite operator="in" in2="blur"/>
      <feComposite in="SourceGraphic"/>
    </filter>
  </defs>
  <g id="Grupo_1176798" data-name="Grupo 1176798" transform="translate(-1217 -1348.551)">
    <g id="Grupo_1176299" data-name="Grupo 1176299" transform="translate(0.5 50.406)">
      <g id="Grupo_1171049" data-name="Grupo 1171049" transform="translate(1225.5 1304.145)">
        <g id="Grupo_1148525" data-name="Grupo 1148525" transform="translate(0)">
          <g transform="matrix(1, 0, 0, 1, -9, -6)" filter="url(#Trazado_982547)">
            <g id="Trazado_982547-2" data-name="Trazado 982547" transform="translate(9 6)" fill="#f2f8ff">
              <path d="M 47.5 93.5 C 41.28937149047852 93.5 35.26533508300781 92.28397369384766 29.59518623352051 89.88570404052734 C 24.11771965026855 87.56893157958984 19.19813346862793 84.25196075439453 14.97309303283691 80.02691650390625 C 10.74804019927979 75.80186462402344 7.431066513061523 70.88229370117188 5.114293098449707 65.40481567382812 C 2.716026782989502 59.73468017578125 1.5 53.71062850952148 1.5 47.5 C 1.5 41.28937149047852 2.716026782989502 35.26533508300781 5.114293098449707 29.59518623352051 C 7.431066513061523 24.11771965026855 10.74804019927979 19.19813346862793 14.97309303283691 14.97309303283691 C 19.19813346862793 10.74804019927979 24.11771965026855 7.431066513061523 29.59518623352051 5.114293098449707 C 35.26533508300781 2.716026782989502 41.28937149047852 1.5 47.5 1.5 C 53.71062850952148 1.5 59.73468017578125 2.716026782989502 65.40481567382812 5.114293098449707 C 70.88229370117188 7.431066513061523 75.80186462402344 10.74804019927979 80.02691650390625 14.97309303283691 C 84.25196075439453 19.19813346862793 87.56893157958984 24.11771965026855 89.88570404052734 29.59518623352051 C 92.28397369384766 35.26533508300781 93.5 41.28937149047852 93.5 47.5 C 93.5 53.71062850952148 92.28397369384766 59.73468017578125 89.88570404052734 65.40481567382812 C 87.56893157958984 70.88229370117188 84.25196075439453 75.80186462402344 80.02691650390625 80.02691650390625 C 75.80186462402344 84.25196075439453 70.88229370117188 87.56893157958984 65.40481567382812 89.88570404052734 C 59.73468017578125 92.28397369384766 53.71062850952148 93.5 47.5 93.5 Z" stroke="none"/>
              <path d="M 47.5 3 C 41.49121475219727 3 35.66376876831055 4.176155090332031 30.17950439453125 6.495796203613281 C 24.88084411621094 8.736953735351562 20.12152099609375 11.94598388671875 16.03375244140625 16.03375244140625 C 11.94598388671875 20.12152099609375 8.736953735351562 24.88084411621094 6.495796203613281 30.17950439453125 C 4.176155090332031 35.66376876831055 3 41.49121475219727 3 47.5 C 3 53.50878524780273 4.176155090332031 59.33623123168945 6.495796203613281 64.82049560546875 C 8.736953735351562 70.11915588378906 11.94598388671875 74.87847900390625 16.03375244140625 78.96624755859375 C 20.12152099609375 83.05401611328125 24.88084411621094 86.26304626464844 30.17950439453125 88.50419616699219 C 35.66376876831055 90.82384490966797 41.49121475219727 92 47.5 92 C 53.50878524780273 92 59.33623123168945 90.82384490966797 64.82049560546875 88.50419616699219 C 70.11915588378906 86.26304626464844 74.87847900390625 83.05401611328125 78.96624755859375 78.96624755859375 C 83.05401611328125 74.87847900390625 86.26304626464844 70.11915588378906 88.50419616699219 64.82049560546875 C 90.82384490966797 59.33623123168945 92 53.50878524780273 92 47.5 C 92 41.49121475219727 90.82384490966797 35.66376876831055 88.50419616699219 30.17950439453125 C 86.26304626464844 24.88084411621094 83.05401611328125 20.12152099609375 78.96624755859375 16.03375244140625 C 74.87847900390625 11.94598388671875 70.11915588378906 8.736953735351562 64.82049560546875 6.495796203613281 C 59.33623123168945 4.176155090332031 53.50878524780273 3 47.5 3 M 47.5 0 C 73.7335205078125 0 95 21.2664794921875 95 47.5 C 95 73.7335205078125 73.7335205078125 95 47.5 95 C 21.2664794921875 95 0 73.7335205078125 0 47.5 C 0 21.2664794921875 21.2664794921875 0 47.5 0 Z" stroke="none" fill="#2d3bf3"/>
            </g>
          </g>
        </g>
      </g>
    </g>
    <g id="service_6331994" transform="translate(1241.959 1369.141)">
      <path id="Trazado_1033170" data-name="Trazado 1033170" d="M45.658,58A6,6,0,0,1,40,62H8a6,6,0,0,1-6-6V14A6,6,0,0,1,8,8H40a6,6,0,0,1,6,6V32Z" fill="#2976b9"/>
      <path id="Trazado_1033171" data-name="Trazado 1033171" d="M29,58.812a3,3,0,0,1,0-5.659V48.982a5.9,5.9,0,0,1,.813-3,3,3,0,0,1,.187-6h1.388l.2-3.064A6.475,6.475,0,0,1,38,31h8V14a6,6,0,0,0-6-6H8a5.968,5.968,0,0,0-3.119.881A5.968,5.968,0,0,0,4,12V54a6,6,0,0,0,6,6H29V58.812Z" fill="#3186cd"/>
      <path id="Trazado_1033172" data-name="Trazado 1033172" d="M37,59.982V60h5a5.95,5.95,0,0,0,3.114-.891c.025-.041.046-.085.071-.127H37Z" fill="#3186cd"/>
      <path id="Trazado_1033173" data-name="Trazado 1033173" d="M42,58H8a2,2,0,0,1-2-2V14a2,2,0,0,1,2-2H40a2,2,0,0,1,2,2Z" fill="#b2b2b2"/>
      <path id="Trazado_1033174" data-name="Trazado 1033174" d="M29,53.153V48.982a5.9,5.9,0,0,1,.813-3,3,3,0,0,1,.187-6h1.388l.2-3.064A6.475,6.475,0,0,1,38,31h4V14a2,2,0,0,0-2-2H8V54a2,2,0,0,0,2,2H27v-.018a3.007,3.007,0,0,1,2-2.829Z" fill="#e5e5e5"/>
      <path id="Trazado_1033175" data-name="Trazado 1033175" d="M34,7H14v5a3,3,0,0,0,3,3H31a3,3,0,0,0,3-3Z" fill="#475a62"/>
      <path id="Trazado_1033176" data-name="Trazado 1033176" d="M18,7V4a2,2,0,0,1,2-2h8a2,2,0,0,1,2,2V7" fill="#283237"/>
      <path id="Trazado_1033177" data-name="Trazado 1033177" d="M33,30V26H31.738a7.968,7.968,0,0,0-.852-2.058l.892-.892L28.95,20.222l-.892.892A7.968,7.968,0,0,0,26,20.262V19H22v1.262a7.968,7.968,0,0,0-2.058.852l-.892-.892L16.222,23.05l.892.892A7.968,7.968,0,0,0,16.262,26H15v4h1.262a7.968,7.968,0,0,0,.852,2.058l-.892.892,2.828,2.828.892-.892A7.968,7.968,0,0,0,22,35.738V37h4V35.738a7.968,7.968,0,0,0,2.058-.852l.892.892,2.828-2.828-.892-.892A7.968,7.968,0,0,0,31.738,30Z" fill="#efab38"/>
      <path id="Trazado_1033178" data-name="Trazado 1033178" d="M30.886,23.942l.892-.892L28.95,20.222l-.892.892A7.968,7.968,0,0,0,26,20.262V19H22v1.262a7.968,7.968,0,0,0-2.058.852l-.892-.892-.05.05V29a4,4,0,0,0,4,4h8.728l.05-.05-.892-.892A7.968,7.968,0,0,0,31.738,30H33V26H31.738a7.968,7.968,0,0,0-.852-2.058Z" fill="#f2c141"/>
      <circle id="Elipse_11503" data-name="Elipse 11503" cx="4" cy="4" r="4" transform="translate(20 24)" fill="#e5e5e5"/>
      <path id="Trazado_1033179" data-name="Trazado 1033179" d="M11,42h4v4H11Z" fill="#fff"/>
      <path id="Trazado_1033180" data-name="Trazado 1033180" d="M11,50h4v4H11Z" fill="#fff"/>
      <g id="Grupo_1176797" data-name="Grupo 1176797">
        <path id="Trazado_1033181" data-name="Trazado 1033181" d="M20,41h5v2H20Z" fill="#b2b2b2"/>
        <path id="Trazado_1033182" data-name="Trazado 1033182" d="M18,45h7v2H18Z" fill="#b2b2b2"/>
        <path id="Trazado_1033183" data-name="Trazado 1033183" d="M20,49h5v2H20Z" fill="#b2b2b2"/>
        <path id="Trazado_1033184" data-name="Trazado 1033184" d="M18,53h7v2H18Z" fill="#b2b2b2"/>
      </g>
      <path id="Trazado_1033185" data-name="Trazado 1033185" d="M23,25a3.977,3.977,0,0,0-2.281.719,3.994,3.994,0,0,0,5.562,5.561A3.994,3.994,0,0,0,23,25Z" fill="#fff"/>
      <path id="Trazado_1033186" data-name="Trazado 1033186" d="M30,57.983v2a2,2,0,0,0,2,2h2a2,2,0,0,0,2-2v-2" fill="#39474d"/>
      <rect id="Rect치ngulo_415833" data-name="Rect치ngulo 415833" width="34" height="4" rx="2" transform="translate(28 40.983)" fill="#c43d32"/>
      <path id="Trazado_1033187" data-name="Trazado 1033187" d="M57.932,44.932l-.517-7.949A5.433,5.433,0,0,0,52,32H38a5.433,5.433,0,0,0-5.415,4.984l-.517,7.948Z" fill="#3b98e0"/>
      <path id="Trazado_1033188" data-name="Trazado 1033188" d="M35.517,36.983,35,44.932H57.932l-.517-7.949A5.433,5.433,0,0,0,52,32H40.932a5.433,5.433,0,0,0-5.415,4.984Z" fill="#41a5ef"/>
      <path id="Trazado_1033189" data-name="Trazado 1033189" d="M60,53.983v-5a5,5,0,0,0-5-5H35a5,5,0,0,0-5,5v5Z" fill="#c43d32"/>
      <rect id="Rect치ngulo_415834" data-name="Rect치ngulo 415834" width="34" height="4" rx="2" transform="translate(28 53.983)" fill="#475a62"/>
      <path id="Trazado_1033190" data-name="Trazado 1033190" d="M60,53.983H30a2,2,0,0,0,2,2H62A2,2,0,0,0,60,53.983Z" fill="#586e7a"/>
      <path id="Trazado_1033191" data-name="Trazado 1033191" d="M52,32H38a5.432,5.432,0,0,0-5.238,4H57.238A5.432,5.432,0,0,0,52,32Z" fill="#c43d32"/>
      <path id="Trazado_1033192" data-name="Trazado 1033192" d="M35.693,36H57.238A5.432,5.432,0,0,0,52,32H40.932a5.434,5.434,0,0,0-5.239,4Z" fill="#e2513a"/>
      <path id="Trazado_1033193" data-name="Trazado 1033193" d="M51,46.983a4,4,0,1,1,4-4A4,4,0,0,1,51,46.983Zm0-6a2,2,0,1,0,2,2A2,2,0,0,0,51,40.983Z" fill="#3186cd"/>
      <path id="Trazado_1033194" data-name="Trazado 1033194" d="M60,48.983a5,5,0,0,0-5-5H35a4.95,4.95,0,0,0-2.375.625A4.947,4.947,0,0,0,32,46.983a5,5,0,0,0,5,5H60Z" fill="#e2513a"/>
      <path id="Trazado_1033195" data-name="Trazado 1033195" d="M36,48.175a1.808,1.808,0,0,0-1.1-1.662l-3.11-1.335A4.968,4.968,0,0,0,30,48.983v1h4.192A1.808,1.808,0,0,0,36,48.175Z" fill="#f2c141"/>
      <path id="Trazado_1033196" data-name="Trazado 1033196" d="M58.21,45.179,55.1,46.513a1.808,1.808,0,0,0,.712,3.47H60v-1a4.965,4.965,0,0,0-1.79-3.8Z" fill="#f8d84b"/>
      <path id="Trazado_1033197" data-name="Trazado 1033197" d="M34.9,46.513l-2.619-1.122A4.768,4.768,0,0,0,32,46.983a4.956,4.956,0,0,0,1.023,3h1.169a1.808,1.808,0,0,0,.712-3.47Z" fill="#f8d84b"/>
      <path id="Trazado_1033198" data-name="Trazado 1033198" d="M31,58.983a2,2,0,0,0,2,2h2a1.99,1.99,0,0,0,.82-.18,1.99,1.99,0,0,0,.18-.82v-2H31Z" fill="#283237"/>
      <path id="Trazado_1033199" data-name="Trazado 1033199" d="M60,57.983v2a2,2,0,0,1-2,2H56a2,2,0,0,1-2-2v-2" fill="#39474d"/>
      <path id="Trazado_1033200" data-name="Trazado 1033200" d="M59,58.983a2,2,0,0,1-2,2H55a1.99,1.99,0,0,1-.82-.18,1.99,1.99,0,0,1-.18-.82v-2h5Z" fill="#283237"/>
      <path id="Trazado_1033201" data-name="Trazado 1033201" d="M52,53.983l-1.106-2.211A3.234,3.234,0,0,0,48,49.983H42a3.234,3.234,0,0,0-2.894,1.79L38,53.983" fill="#39474d"/>
      <path id="Trazado_1033202" data-name="Trazado 1033202" d="M52,53.983l-1.106-2.211a2.983,2.983,0,0,0-.171-.29,3.224,3.224,0,0,0-1.723-.5H43a3.234,3.234,0,0,0-2.894,1.79L39.5,53.983Z" fill="#475a62"/>
      <path id="Trazado_1033203" data-name="Trazado 1033203" d="M34,12V7H16v5a3,3,0,0,0,3,3H31A3,3,0,0,0,34,12Z" fill="#586e7a"/>
      <path id="Trazado_1033204" data-name="Trazado 1033204" d="M28,2H22a2,2,0,0,0-2,2V7H30V4A2,2,0,0,0,28,2Z" fill="#39474d"/>
      <path id="Trazado_1033205" data-name="Trazado 1033205" d="M8,63H40a7,7,0,0,0,6.305-4H53v1a3,3,0,0,0,3,3h2a3,3,0,0,0,3-3V58.816a2.982,2.982,0,0,0,0-5.632V49a5.952,5.952,0,0,0-.823-3.018A2.993,2.993,0,1,0,60,40H58.612l-.2-3.083A6.469,6.469,0,0,0,52,31.017H47V14a7.008,7.008,0,0,0-7-7H35a1,1,0,0,0-1-1H31V4a3,3,0,0,0-3-3H20a3,3,0,0,0-3,3V6H14a1,1,0,0,0-1,1H8a7.008,7.008,0,0,0-7,7V56a7.009,7.009,0,0,0,7,7Zm24-2a1,1,0,0,1-1-1V59h4v1a1,1,0,0,1-1,1Zm8,0H36.816A2.966,2.966,0,0,0,37,60V59h7A5.01,5.01,0,0,1,40,61Zm18,0H56a1,1,0,0,1-1-1V59h4v1A1,1,0,0,1,58,61Zm2-4H30a1,1,0,0,1,0-2H60a1,1,0,0,1,0,2ZM33.581,37.083c0-.022.01-.043.012-.065H56.408c0,.016.008.03.009.046l.4,6.22A5.992,5.992,0,0,0,55,43a4,4,0,0,0-8,0H35a5.958,5.958,0,0,0-1.821.285ZM52.618,53l-.829-1.658A4.212,4.212,0,0,0,48,49H42a4.212,4.212,0,0,0-3.789,2.342L37.382,53H31V51h3.192A2.808,2.808,0,0,0,35.3,45.611l-1.181-.5A3.958,3.958,0,0,1,35,45H55a4.009,4.009,0,0,1,.882.1l-1.181.506A2.808,2.808,0,0,0,55.808,51H59v2Zm-2.236,0H39.618L40,52.236A2.224,2.224,0,0,1,42,51h6a2.224,2.224,0,0,1,2,1.236ZM32.005,46.376l2.5,1.073A.808.808,0,0,1,34.192,49H31a3.965,3.965,0,0,1,1.005-2.624ZM49,43a2,2,0,0,1,4,0Zm10,6H55.808a.808.808,0,0,1-.319-1.551l2.505-1.074A3.968,3.968,0,0,1,59,49ZM31.128,44H30a1,1,0,0,1,0-2h1.258ZM60,42a1,1,0,0,1,0,2H58.872l-.13-2Zm-4.318-6.982H34.321a4.439,4.439,0,0,1,3.679-2H52A4.444,4.444,0,0,1,55.682,35.018ZM40,9a5.006,5.006,0,0,1,5,5V31.017H43V14a3,3,0,0,0-3-3H35V9ZM19,4a1,1,0,0,1,1-1h8a1,1,0,0,1,1,1V6H19ZM15,8H33v4a2,2,0,0,1-2,2H17a2,2,0,0,1-2-2ZM3,14A5.006,5.006,0,0,1,8,9h5v2H8a3,3,0,0,0-3,3V56a3,3,0,0,0,3,3H25V57H8a1,1,0,0,1-1-1V14a1,1,0,0,1,1-1h5.142A4,4,0,0,0,17,16H31a4,4,0,0,0,3.858-3H40a1,1,0,0,1,1,1V31.017H38a6.475,6.475,0,0,0-6.413,5.919L31.388,40H30a2.993,2.993,0,1,0-.177,5.983A5.952,5.952,0,0,0,29,49v4.184a2.982,2.982,0,0,0,0,5.632V60a2.966,2.966,0,0,0,.184,1H8a5.006,5.006,0,0,1-5-5Z"/>
      <path id="Trazado_1033206" data-name="Trazado 1033206" d="M15,31h.522a9.378,9.378,0,0,0,.362.873l-.369.369a1,1,0,0,0,0,1.415l2.828,2.828a1,1,0,0,0,1.414,0l.37-.369a9.008,9.008,0,0,0,.873.362V37a1,1,0,0,0,1,1h4a1,1,0,0,0,1-1v-.522a9.008,9.008,0,0,0,.873-.362l.37.369a1.029,1.029,0,0,0,1.414,0l2.828-2.828a1,1,0,0,0,0-1.415l-.369-.369A9.379,9.379,0,0,0,32.478,31H33a1,1,0,0,0,1-1V26a1,1,0,0,0-1-1h-.522a9.378,9.378,0,0,0-.362-.873l.369-.369a1,1,0,0,0,0-1.415l-2.828-2.828a1,1,0,0,0-1.414,0l-.369.37A9.286,9.286,0,0,0,27,19.522V19a1,1,0,0,0-1-1H22a1,1,0,0,0-1,1v.522a9.285,9.285,0,0,0-.874.362l-.369-.37a1,1,0,0,0-1.414,0l-2.828,2.828a1,1,0,0,0,0,1.415l.369.369a9.378,9.378,0,0,0-.362.873H15a1,1,0,0,0-1,1v4a1,1,0,0,0,1,1Zm1-4h.262a1,1,0,0,0,.967-.75,7,7,0,0,1,.747-1.8,1,1,0,0,0-.155-1.216l-.185-.185,1.414-1.414.185.185a1,1,0,0,0,1.216.154,7,7,0,0,1,1.8-.745,1,1,0,0,0,.75-.968V20h2v.262a1,1,0,0,0,.75.968,7,7,0,0,1,1.8.745,1,1,0,0,0,1.216-.154l.185-.185,1.414,1.414-.185.185a1,1,0,0,0-.155,1.216,7,7,0,0,1,.747,1.8,1,1,0,0,0,.967.75H32v2h-.262a1,1,0,0,0-.967.75,7,7,0,0,1-.747,1.8,1,1,0,0,0,.155,1.216l.185.185L28.95,34.364l-.185-.185a1.006,1.006,0,0,0-1.216-.155,7,7,0,0,1-1.8.747,1,1,0,0,0-.75.967V36H23v-.262a1,1,0,0,0-.75-.967,7,7,0,0,1-1.8-.747,1.006,1.006,0,0,0-1.216.155l-.185.185L17.636,32.95l.185-.185a1,1,0,0,0,.155-1.216,7,7,0,0,1-.747-1.8,1,1,0,0,0-.967-.75H16Z"/>
      <path id="Trazado_1033207" data-name="Trazado 1033207" d="M24,33a5,5,0,1,0-5-5A5,5,0,0,0,24,33Zm0-8a3,3,0,1,1-3,3,3,3,0,0,1,3-3Z"/>
      <path id="Trazado_1033208" data-name="Trazado 1033208" d="M15,41H11a1,1,0,0,0-1,1v4a1,1,0,0,0,1,1h4a1,1,0,0,0,1-1V42A1,1,0,0,0,15,41Zm-1,4H12V43h2Z"/>
      <path id="Trazado_1033209" data-name="Trazado 1033209" d="M15,49H11a1,1,0,0,0-1,1v4a1,1,0,0,0,1,1h4a1,1,0,0,0,1-1V50A1,1,0,0,0,15,49Zm-1,4H12V51h2Z"/>
      <path id="Trazado_1033210" data-name="Trazado 1033210" d="M20,41h5v2H20Z"/>
      <path id="Trazado_1033211" data-name="Trazado 1033211" d="M18,45h7v2H18Z"/>
      <path id="Trazado_1033212" data-name="Trazado 1033212" d="M20,49h5v2H20Z"/>
      <path id="Trazado_1033213" data-name="Trazado 1033213" d="M18,53h7v2H18Z"/>
    </g>
  </g>
</svg>
