<svg xmlns="http://www.w3.org/2000/svg" xmlns:xlink="http://www.w3.org/1999/xlink" width="108" height="108" viewBox="0 0 108 108">
  <defs>
    <filter id="Trazado_904820" x="0" y="0" width="108" height="108" filterUnits="userSpaceOnUse">
      <feOffset dy="3" input="SourceAlpha"/>
      <feGaussianBlur stdDeviation="3" result="blur"/>
      <feFlood flood-opacity="0.161"/>
      <feComposite operator="in" in2="blur"/>
      <feComposite in="SourceGraphic"/>
    </filter>
  </defs>
  <g id="Grupo_1176805" data-name="Grupo 1176805" transform="translate(-620 -3218)">
    <g id="Grupo_1176753" data-name="Grupo 1176753" transform="translate(629 3224)">
      <g id="Grupo_1173585" data-name="Grupo 1173585" transform="translate(0)">
        <g id="Grupo_1173428" data-name="Grupo 1173428">
          <g id="Grupo_1171958" data-name="Grupo 1171958">
            <g id="Grupo_1167341" data-name="Grupo 1167341">
              <g id="Grupo_1166792" data-name="Grupo 1166792">
                <g transform="matrix(1, 0, 0, 1, -9, -6)" filter="url(#Trazado_904820)">
                  <g id="Trazado_904820-2" data-name="Trazado 904820" transform="translate(9 6)" fill="#e8eafd">
                    <path d="M 44.99999618530273 88.49999237060547 C 39.12687301635742 88.49999237060547 33.43022155761719 87.35006713867188 28.06829643249512 85.08216857910156 C 22.88852119445801 82.89130401611328 18.23629570007324 79.75457763671875 14.24084663391113 75.75914001464844 C 10.24540901184082 71.76369476318359 7.108683586120605 67.11146545410156 4.917821407318115 61.93169403076172 C 2.649921178817749 56.56976699829102 1.499996185302734 50.87311553955078 1.499996185302734 44.99999237060547 C 1.499996185302734 39.12686920166016 2.649921178817749 33.43021774291992 4.917821407318115 28.06829261779785 C 7.108683586120605 22.88851737976074 10.24540901184082 18.23630523681641 14.24084663391113 14.24085521697998 C 18.23629570007324 10.24540519714355 22.88852119445801 7.108692169189453 28.06829643249512 4.917829990386963 C 33.43022155761719 2.649929761886597 39.12687301635742 1.500004887580872 44.99999618530273 1.500004887580872 C 50.87311935424805 1.500004887580872 56.56977081298828 2.649929761886597 61.93169784545898 4.917829990386963 C 67.11147308349609 7.108692169189453 71.76369476318359 10.24540519714355 75.75914764404297 14.24085521697998 C 79.75458526611328 18.23630523681641 82.89131164550781 22.88851737976074 85.08216857910156 28.06829261779785 C 87.35007476806641 33.43021774291992 88.5 39.12686920166016 88.5 44.99999237060547 C 88.5 50.87311553955078 87.35007476806641 56.56976699829102 85.08216857910156 61.93169403076172 C 82.89131164550781 67.11146545410156 79.75458526611328 71.76369476318359 75.75914764404297 75.75914001464844 C 71.76369476318359 79.75457763671875 67.11147308349609 82.89130401611328 61.93169784545898 85.08216857910156 C 56.56977081298828 87.35006713867188 50.87311935424805 88.49999237060547 44.99999618530273 88.49999237060547 Z" stroke="none"/>
                    <path d="M 44.99999618530273 2.999992370605469 C 39.32870864868164 2.999992370605469 33.82865142822266 4.11004638671875 28.65262603759766 6.299331665039062 C 23.65165710449219 8.414566040039062 19.15968322753906 11.44333648681641 15.301513671875 15.30150604248047 C 11.44333648681641 19.15967559814453 8.414566040039062 23.65164947509766 6.299339294433594 28.65262222290039 C 4.110054016113281 33.82864761352539 2.999992370605469 39.32870483398438 2.999992370605469 44.99999237060547 C 2.999992370605469 50.67127990722656 4.110054016113281 56.17132186889648 6.299339294433594 61.34736633300781 C 8.414566040039062 66.34833526611328 11.44333648681641 70.84029388427734 15.301513671875 74.69846343994141 C 19.15968322753906 78.55663299560547 23.65165710449219 81.58540344238281 28.65262603759766 83.70063781738281 C 33.82865142822266 85.88992309570312 39.32870864868164 86.99997711181641 44.99999618530273 86.99997711181641 C 50.67128372192383 86.99997711181641 56.17134094238281 85.88992309570312 61.34736633300781 83.70063781738281 C 66.34834289550781 81.58540344238281 70.84030914306641 78.55663299560547 74.69847869873047 74.69846343994141 C 78.55665588378906 70.84029388427734 81.58542633056641 66.34833526611328 83.70065307617188 61.34736633300781 C 85.88993835449219 56.17132186889648 87 50.67127990722656 87 44.99999237060547 C 87 39.32870483398438 85.88993835449219 33.82864761352539 83.70065307617188 28.65262222290039 C 81.58542633056641 23.65164947509766 78.55665588378906 19.15967559814453 74.69847869873047 15.30150604248047 C 70.84030914306641 11.44333648681641 66.34834289550781 8.414566040039062 61.34736633300781 6.299331665039062 C 56.17134094238281 4.11004638671875 50.67128372192383 2.999992370605469 44.99999618530273 2.999992370605469 M 44.99999618530273 -7.62939453125e-06 C 69.85281372070312 -7.62939453125e-06 90 20.14717864990234 90 44.99999237060547 C 90 69.85279083251953 69.85281372070312 89.99997711181641 44.99999618530273 89.99997711181641 C 20.14717864990234 89.99997711181641 -7.62939453125e-06 69.85279083251953 -7.62939453125e-06 44.99999237060547 C -7.62939453125e-06 20.14717864990234 20.14717864990234 -7.62939453125e-06 44.99999618530273 -7.62939453125e-06 Z" stroke="none" fill="#2d3bf3"/>
                  </g>
                </g>
              </g>
            </g>
          </g>
        </g>
      </g>
    </g>
    <g id="crankset_5716278" transform="translate(643.051 3232.784)">
      <g id="Grupo_1176803" data-name="Grupo 1176803" transform="translate(0.874 11.064)">
        <path id="Trazado_1033235" data-name="Trazado 1033235" d="M49.057,44.906l.384-1.433H29.827a5.484,5.484,0,0,1-5.484-5.484V37.8a5.484,5.484,0,0,1,5.484-5.484H49.441l-.384-1.433a1.5,1.5,0,0,1,1.058-1.832l1.816-.487a25.926,25.926,0,0,0-4.035-6.98l-1.326,1.326a1.5,1.5,0,0,1-2.116,0l-1.762-1.763a1.5,1.5,0,0,1,0-2.115l1.326-1.327a25.92,25.92,0,0,0-6.98-4.035l-.486,1.816a1.5,1.5,0,0,1-1.832,1.058L32.311,15.9a1.5,1.5,0,0,1-1.058-1.832l.487-1.818a26.121,26.121,0,0,0-8.065,0l.487,1.818A1.5,1.5,0,0,1,23.105,15.9l-2.408.645a1.5,1.5,0,0,1-1.832-1.057l-.487-1.816a25.926,25.926,0,0,0-6.98,4.035l1.326,1.327a1.5,1.5,0,0,1,0,2.115l-1.763,1.763a1.5,1.5,0,0,1-2.115,0L7.52,21.586a25.926,25.926,0,0,0-4.035,6.98l1.816.487a1.5,1.5,0,0,1,1.057,1.832l-.644,2.408A1.5,1.5,0,0,1,3.883,34.35l-1.818-.487a26.118,26.118,0,0,0,0,8.064l1.818-.487A1.5,1.5,0,0,1,5.715,42.5l.645,2.408A1.5,1.5,0,0,1,5.3,46.738l-1.816.487a25.926,25.926,0,0,0,4.035,6.98l1.327-1.326a1.5,1.5,0,0,1,2.115,0l1.763,1.763a1.5,1.5,0,0,1,0,2.115L11.4,58.084a25.926,25.926,0,0,0,6.98,4.035l.487-1.816A1.5,1.5,0,0,1,20.7,59.245l2.408.645a1.5,1.5,0,0,1,1.058,1.832l-.487,1.818a26.121,26.121,0,0,0,8.065,0l-.487-1.818a1.5,1.5,0,0,1,1.058-1.832l2.408-.645A1.5,1.5,0,0,1,36.551,60.3l.487,1.816a25.926,25.926,0,0,0,6.98-4.035l-1.326-1.327a1.5,1.5,0,0,1,0-2.115l1.763-1.763a1.5,1.5,0,0,1,2.115,0L47.9,54.205a25.926,25.926,0,0,0,4.035-6.98l-1.816-.487A1.5,1.5,0,0,1,49.057,44.906Z" transform="translate(-1.752 -11.938)" fill="#41495a"/>
        <path id="Trazado_1033236" data-name="Trazado 1033236" d="M38.1,51.745a5.484,5.484,0,0,1-5.484-5.484v-.187A5.484,5.484,0,0,1,38.1,40.59H52.8a17.731,17.731,0,1,0,0,11.156Z" transform="translate(-10.021 -20.21)" fill="#606875"/>
        <path id="Trazado_1033237" data-name="Trazado 1033237" d="M52.546,52.813H83.054a3.49,3.49,0,0,1,3.49,3.49v4.176a3.49,3.49,0,0,1-3.49,3.49H52.546a5.484,5.484,0,0,1-5.484-5.484V58.3a5.484,5.484,0,0,1,5.484-5.484Z" transform="translate(-24.471 -32.433)" fill="#90caf9"/>
        <path id="Trazado_1033238" data-name="Trazado 1033238" d="M36.158,56.327l-7.6-7.6a13.707,13.707,0,0,0-.012,15.21Z" transform="translate(-14.036 -30.385)" fill="#f5f5fa"/>
        <g id="Grupo_1176802" data-name="Grupo 1176802" transform="translate(35.353 18.343)">
          <path id="Trazado_1033239" data-name="Trazado 1033239" d="M75.81,50.765a13.743,13.743,0,0,0-1.116-2.037l-2.036,2.037Z" transform="translate(-72.658 -48.728)" fill="#f5f5fa"/>
          <path id="Trazado_1033240" data-name="Trazado 1033240" d="M72.721,75.188l2.017,2.017a13.849,13.849,0,0,0,1.1-2.017Z" transform="translate(-72.69 -61.995)" fill="#f5f5fa"/>
        </g>
        <path id="Trazado_1033241" data-name="Trazado 1033241" d="M47.881,44.623l5.888-5.888a13.707,13.707,0,0,0-15.191,0l6.745,6.745A5.445,5.445,0,0,1,47.881,44.623Z" transform="translate(-20.217 -24.223)" fill="#f5f5fa"/>
        <path id="Trazado_1033242" data-name="Trazado 1033242" d="M45.284,73.4,38.54,80.146a13.707,13.707,0,0,0,15.229,0l-5.875-5.874A5.447,5.447,0,0,1,45.284,73.4Z" transform="translate(-20.198 -42.756)" fill="#f5f5fa"/>
        <path id="Trazado_1033243" data-name="Trazado 1033243" d="M82.256,63.976H57.81a.873.873,0,0,1,0-1.745H82.256a.873.873,0,0,1,0,1.745Z" transform="translate(-29.423 -37.156)" fill="#1976d2"/>
        <circle id="Elipse_11506" data-name="Elipse 11506" cx="2.524" cy="2.524" r="2.524" transform="translate(52.834 23.424)" fill="#dcf06e"/>
      </g>
      <g id="Grupo_1176804" data-name="Grupo 1176804" transform="translate(0 10.195)">
        <path id="Trazado_1033244" data-name="Trazado 1033244" d="M59.456,30.571H49.235l-.211-.787a.622.622,0,0,1,.441-.763l1.816-.487a.873.873,0,0,0,.588-1.157,26.75,26.75,0,0,0-4.17-7.216.873.873,0,0,0-1.3-.068l-1.33,1.327a.637.637,0,0,1-.881,0L42.43,19.658a.622.622,0,0,1,0-.881l1.326-1.326a.873.873,0,0,0-.068-1.3,26.774,26.774,0,0,0-7.216-4.17.873.873,0,0,0-1.157.588l-.487,1.816a.625.625,0,0,1-.763.441l-2.405-.643a.624.624,0,0,1-.441-.763l.487-1.817A.873.873,0,0,0,31,10.517a27.123,27.123,0,0,0-8.333,0,.873.873,0,0,0-.708,1.088l.487,1.817a.624.624,0,0,1-.441.763l-2.408.643a.624.624,0,0,1-.763-.441l-.487-1.816a.872.872,0,0,0-1.156-.588,26.785,26.785,0,0,0-7.217,4.17.874.874,0,0,0-.068,1.3l1.326,1.326a.624.624,0,0,1,0,.881L9.466,21.421a.637.637,0,0,1-.881,0L7.259,20.095A.89.89,0,0,0,6.6,19.84a.872.872,0,0,0-.632.323,26.763,26.763,0,0,0-4.169,7.216.873.873,0,0,0,.588,1.157l1.816.487a.624.624,0,0,1,.441.763l-.645,2.408a.624.624,0,0,1-.763.441l-1.818-.487a.873.873,0,0,0-1.09.708,26.988,26.988,0,0,0,0,8.333.873.873,0,0,0,1.088.708l1.818-.488a.624.624,0,0,1,.763.441l.644,2.408a.624.624,0,0,1-.441.763l-1.816.487a.873.873,0,0,0-.588,1.157A26.763,26.763,0,0,0,5.963,53.88a.872.872,0,0,0,.632.323.889.889,0,0,0,.663-.254l1.326-1.326a.624.624,0,0,1,.881,0l1.762,1.763a.624.624,0,0,1,0,.881L9.9,56.593a.874.874,0,0,0,.068,1.3,26.784,26.784,0,0,0,7.216,4.17.873.873,0,1,0,.627-1.628,25.015,25.015,0,0,1-5.979-3.3l.63-.629a2.371,2.371,0,0,0,0-3.349L10.7,51.388a2.371,2.371,0,0,0-3.349,0l-.628.627a25,25,0,0,1-2.936-5.078l.86-.231a2.372,2.372,0,0,0,1.675-2.9L5.679,41.4a2.369,2.369,0,0,0-2.9-1.675l-.861.231a25.167,25.167,0,0,1,0-5.866l.861.231a2.37,2.37,0,0,0,2.9-1.675l.645-2.408a2.371,2.371,0,0,0-1.675-2.9l-.86-.231a24.982,24.982,0,0,1,2.935-5.078l.627.627a2.367,2.367,0,0,0,3.349,0l1.764-1.762a2.371,2.371,0,0,0,0-3.349l-.628-.628a24.986,24.986,0,0,1,5.078-2.935l.23.861a2.372,2.372,0,0,0,2.9,1.674l2.408-.645a2.372,2.372,0,0,0,1.675-2.9l-.231-.861a25.313,25.313,0,0,1,5.866,0l-.231.861a2.371,2.371,0,0,0,1.675,2.9l2.408.645a2.371,2.371,0,0,0,2.9-1.675l.23-.86a25,25,0,0,1,5.079,2.935l-.628.627a2.368,2.368,0,0,0,0,3.349l1.762,1.763a2.367,2.367,0,0,0,3.349,0l.628-.627a24.973,24.973,0,0,1,2.935,5.078l-.86.231a2.367,2.367,0,0,0-1.675,2.9l.09.335H44.267a18.619,18.619,0,0,0-5.388-7.72.872.872,0,1,0-1.131,1.328A16.9,16.9,0,0,1,42.4,30.571H39.919a14.421,14.421,0,0,0-.929-1.649.872.872,0,0,0-1.342-.132l-1.781,1.781h-5.2l4.378-4.378a.873.873,0,0,0-.133-1.343,14.58,14.58,0,0,0-16.158,0,.873.873,0,0,0-.133,1.343l6.051,6.05a6.35,6.35,0,0,0-1.915,3.286L16.014,28.79a.872.872,0,0,0-1.342.132A14.579,14.579,0,0,0,14.658,45.1a.873.873,0,0,0,.64.384.823.823,0,0,0,.086,0A.873.873,0,0,0,16,45.232l6.744-6.742a6.348,6.348,0,0,0,1.905,3.3L18.6,47.837a.872.872,0,0,0,.132,1.342,14.58,14.58,0,0,0,16.2,0,.873.873,0,0,0,.132-1.342l-4.365-4.365h5.2l1.761,1.762a.872.872,0,0,0,.617.256.821.821,0,0,0,.086,0A.875.875,0,0,0,39,45.1a14.525,14.525,0,0,0,.917-1.628h2.487A16.858,16.858,0,1,1,26.829,20.164a.873.873,0,1,0,0-1.745A18.6,18.6,0,1,0,44.274,43.472h3.15l-.09.334a2.368,2.368,0,0,0,1.677,2.9l.86.231a24.994,24.994,0,0,1-2.935,5.078l-.628-.627a2.367,2.367,0,0,0-3.349,0L41.2,53.151a2.367,2.367,0,0,0,0,3.349l.628.628a25,25,0,0,1-5.079,2.935l-.23-.86a2.369,2.369,0,0,0-2.9-1.675l-2.408.645a2.371,2.371,0,0,0-1.675,2.9l.231.861a25.313,25.313,0,0,1-5.866,0l.231-.861a2.372,2.372,0,0,0-1.675-2.9l-1.272-.341a.873.873,0,1,0-.452,1.686L22,59.859a.624.624,0,0,1,.441.763l-.487,1.817a.873.873,0,0,0,.708,1.088,27.029,27.029,0,0,0,8.333,0,.873.873,0,0,0,.708-1.088l-.487-1.817a.624.624,0,0,1,.442-.765l2.408-.645a.626.626,0,0,1,.763.441l.487,1.816a.873.873,0,0,0,1.157.588,26.774,26.774,0,0,0,7.216-4.17.873.873,0,0,0,.068-1.3l-1.326-1.327a.622.622,0,0,1,0-.881l1.762-1.762a.637.637,0,0,1,.881,0L46.4,53.946a.873.873,0,0,0,1.3-.068,26.75,26.75,0,0,0,4.17-7.216.873.873,0,0,0-.588-1.157l-1.816-.487a.622.622,0,0,1-.441-.763l.21-.786H59.456a4.368,4.368,0,0,0,4.363-4.363V34.934A4.368,4.368,0,0,0,59.456,30.571Zm-33.33.667-5.489-5.493a12.838,12.838,0,0,1,12.386,0L28.14,30.628a6.545,6.545,0,0,0-2.014.61ZM15.556,43.215a12.838,12.838,0,0,1,.01-12.407l6.2,6.2Zm11.276,6.676a12.785,12.785,0,0,1-6.216-1.6l5.49-5.492a6.481,6.481,0,0,0,2.07.623l4.867,4.87a12.785,12.785,0,0,1-6.213,1.6ZM62.074,39.11a2.621,2.621,0,0,1-2.618,2.618H28.949a4.637,4.637,0,0,1-4.612-4.612v-.187a4.637,4.637,0,0,1,4.612-4.612H59.456a2.621,2.621,0,0,1,2.618,2.618Z" transform="translate(0 -10.195)"/>
        <path id="Trazado_1033245" data-name="Trazado 1033245" d="M64.957,30.641a.873.873,0,1,0,.7-1.6,18.571,18.571,0,0,0-2.067-.769.873.873,0,1,0-.51,1.669,16.782,16.782,0,0,1,1.872.7Z" transform="translate(-31.322 -19.242)"/>
        <path id="Trazado_1033246" data-name="Trazado 1033246" d="M84.78,57.168A3.4,3.4,0,0,0,81.5,59.692H57.81a.873.873,0,0,0,0,1.745H81.5a3.395,3.395,0,1,0,3.279-4.269Zm0,5.048a1.652,1.652,0,1,1,1.652-1.652,1.652,1.652,0,0,1-1.652,1.652Z" transform="translate(-28.549 -33.748)"/>
      </g>
    </g>
  </g>
</svg>
