<svg xmlns="http://www.w3.org/2000/svg" xmlns:xlink="http://www.w3.org/1999/xlink" width="113" height="113" viewBox="0 0 113 113">
  <defs>
    <filter id="Trazado_982547" x="0" y="0" width="113" height="113" filterUnits="userSpaceOnUse">
      <feOffset dy="3" input="SourceAlpha"/>
      <feGaussianBlur stdDeviation="3" result="blur"/>
      <feFlood flood-opacity="0.161"/>
      <feComposite operator="in" in2="blur"/>
      <feComposite in="SourceGraphic"/>
    </filter>
  </defs>
  <g id="Grupo_1176812" data-name="Grupo 1176812" transform="translate(-194.237 -8612)">
    <g id="Grupo_1176787" data-name="Grupo 1176787" transform="translate(-1022.263 7313.855)">
      <g id="Grupo_1171049" data-name="Grupo 1171049" transform="translate(1225.5 1304.145)">
        <g id="Grupo_1148525" data-name="Grupo 1148525" transform="translate(0)">
          <g transform="matrix(1, 0, 0, 1, -9, -6)" filter="url(#Trazado_982547)">
            <g id="Trazado_982547-2" data-name="Trazado 982547" transform="translate(9 6)" fill="#f2f8ff">
              <path d="M 47.5 93.5 C 41.28937149047852 93.5 35.26533508300781 92.28397369384766 29.59518623352051 89.88570404052734 C 24.11771965026855 87.56893157958984 19.19813346862793 84.25196075439453 14.97309303283691 80.02691650390625 C 10.74804019927979 75.80186462402344 7.431066513061523 70.88229370117188 5.114293098449707 65.40481567382812 C 2.716026782989502 59.73468017578125 1.5 53.71062850952148 1.5 47.5 C 1.5 41.28937149047852 2.716026782989502 35.26533508300781 5.114293098449707 29.59518623352051 C 7.431066513061523 24.11771965026855 10.74804019927979 19.19813346862793 14.97309303283691 14.97309303283691 C 19.19813346862793 10.74804019927979 24.11771965026855 7.431066513061523 29.59518623352051 5.114293098449707 C 35.26533508300781 2.716026782989502 41.28937149047852 1.5 47.5 1.5 C 53.71062850952148 1.5 59.73468017578125 2.716026782989502 65.40481567382812 5.114293098449707 C 70.88229370117188 7.431066513061523 75.80186462402344 10.74804019927979 80.02691650390625 14.97309303283691 C 84.25196075439453 19.19813346862793 87.56893157958984 24.11771965026855 89.88570404052734 29.59518623352051 C 92.28397369384766 35.26533508300781 93.5 41.28937149047852 93.5 47.5 C 93.5 53.71062850952148 92.28397369384766 59.73468017578125 89.88570404052734 65.40481567382812 C 87.56893157958984 70.88229370117188 84.25196075439453 75.80186462402344 80.02691650390625 80.02691650390625 C 75.80186462402344 84.25196075439453 70.88229370117188 87.56893157958984 65.40481567382812 89.88570404052734 C 59.73468017578125 92.28397369384766 53.71062850952148 93.5 47.5 93.5 Z" stroke="none"/>
              <path d="M 47.5 3 C 41.49121475219727 3 35.66376876831055 4.176155090332031 30.17950439453125 6.495796203613281 C 24.88084411621094 8.736953735351562 20.12152099609375 11.94598388671875 16.03375244140625 16.03375244140625 C 11.94598388671875 20.12152099609375 8.736953735351562 24.88084411621094 6.495796203613281 30.17950439453125 C 4.176155090332031 35.66376876831055 3 41.49121475219727 3 47.5 C 3 53.50878524780273 4.176155090332031 59.33623123168945 6.495796203613281 64.82049560546875 C 8.736953735351562 70.11915588378906 11.94598388671875 74.87847900390625 16.03375244140625 78.96624755859375 C 20.12152099609375 83.05401611328125 24.88084411621094 86.26304626464844 30.17950439453125 88.50419616699219 C 35.66376876831055 90.82384490966797 41.49121475219727 92 47.5 92 C 53.50878524780273 92 59.33623123168945 90.82384490966797 64.82049560546875 88.50419616699219 C 70.11915588378906 86.26304626464844 74.87847900390625 83.05401611328125 78.96624755859375 78.96624755859375 C 83.05401611328125 74.87847900390625 86.26304626464844 70.11915588378906 88.50419616699219 64.82049560546875 C 90.82384490966797 59.33623123168945 92 53.50878524780273 92 47.5 C 92 41.49121475219727 90.82384490966797 35.66376876831055 88.50419616699219 30.17950439453125 C 86.26304626464844 24.88084411621094 83.05401611328125 20.12152099609375 78.96624755859375 16.03375244140625 C 74.87847900390625 11.94598388671875 70.11915588378906 8.736953735351562 64.82049560546875 6.495796203613281 C 59.33623123168945 4.176155090332031 53.50878524780273 3 47.5 3 M 47.5 0 C 73.7335205078125 0 95 21.2664794921875 95 47.5 C 95 73.7335205078125 73.7335205078125 95 47.5 95 C 21.2664794921875 95 0 73.7335205078125 0 47.5 C 0 21.2664794921875 21.2664794921875 0 47.5 0 Z" stroke="none" fill="#1e29a9"/>
            </g>
          </g>
        </g>
      </g>
    </g>
    <g id="Layer_x0020_1" transform="translate(222.159 8633.915)">
      <path id="Trazado_1033130" data-name="Trazado 1033130" d="M15.216,20.671c-5.659,0-10.039-5.718-11.8-11.156A4.973,4.973,0,0,1,.443,5.049,5.373,5.373,0,0,1,3.105.474.715.715,0,0,1,3.454.383H26.978a.717.717,0,0,1,.349.091A5.375,5.375,0,0,1,29.99,5.049a4.974,4.974,0,0,1-2.975,4.467c-1.76,5.437-6.141,11.156-11.8,11.156ZM3.651,1.816A3.975,3.975,0,0,0,1.875,5.049,3.539,3.539,0,0,0,4.22,8.288a.713.713,0,0,1,.461.472c1.536,5.047,5.487,10.478,10.534,10.478s9-5.432,10.534-10.478a.718.718,0,0,1,.462-.472,3.538,3.538,0,0,0,2.345-3.239,3.974,3.974,0,0,0-1.776-3.233H3.651Z" transform="translate(13.436 13.353)" fill-rule="evenodd"/>
      <path id="Trazado_1033131" data-name="Trazado 1033131" d="M24.756,15.169H1.224a.717.717,0,0,1-.716-.737l.02-.7a.611.611,0,0,1,0-.064L1.3,7.247C1.9,2.24,7.6,0,12.98,0c5.215,0,11.1,2.268,11.692,7.247l.766,6.421c0,.021,0,.043,0,.064l.016.58a.718.718,0,0,1-.7.857ZM1.967,13.737H24l-.754-6.32c-.49-4.112-5.668-5.985-10.27-5.985S3.212,3.3,2.72,7.416l-.753,6.32Z" transform="translate(15.667)" fill-rule="evenodd"/>
      <path id="Trazado_1033132" data-name="Trazado 1033132" d="M20.54,6.374a6.974,6.974,0,0,1-1.484-.24,24.545,24.545,0,0,0-6.1-.665,24.585,24.585,0,0,0-6.1.665,6.945,6.945,0,0,1-1.484.24c-1.37,0-2-.908-4.08-3.918L.635,1.508A.716.716,0,0,1,1.223.383H24.689a.716.716,0,0,1,.588,1.125l-.656.946c-2.083,3.011-2.711,3.92-4.081,3.92ZM12.956,4.037a25.831,25.831,0,0,1,6.418.7,6.124,6.124,0,0,0,1.165.2c.584,0,1.035-.6,2.782-3.127H2.591c1.747,2.524,2.2,3.127,2.782,3.127a6.132,6.132,0,0,0,1.165-.2,25.849,25.849,0,0,1,6.418-.7Z" transform="translate(15.667 13.354)" fill-rule="evenodd"/>
      <path id="Trazado_1033133" data-name="Trazado 1033133" d="M1.191,15.58a.717.717,0,0,1-.716-.716V2.485a.716.716,0,0,1,.471-.673A13.222,13.222,0,0,1,5.488,1h.769a.717.717,0,0,1,.716.716V14.675a.717.717,0,0,1-.69.716.73.73,0,0,1-.741-.664,1.821,1.821,0,0,0-3.636.136.716.716,0,0,1-.716.717ZM1.907,3v9.173a3.238,3.238,0,0,1,3.634,0V2.433H5.488A11.738,11.738,0,0,0,1.907,3Z" transform="translate(14.532 34.822)" fill-rule="evenodd"/>
      <path id="Trazado_1033134" data-name="Trazado 1033134" d="M1.767,15.579a.717.717,0,0,1-.716-.716V1.716A.717.717,0,0,1,1.767,1h.777a13.233,13.233,0,0,1,4.535.809.717.717,0,0,1,.471.673V14.675a.717.717,0,0,1-.69.716.729.729,0,0,1-.741-.664,1.82,1.82,0,0,0-3.636.136.718.718,0,0,1-.717.717ZM2.483,2.432v9.736a3.238,3.238,0,0,1,3.634,0V2.994a11.735,11.735,0,0,0-3.574-.562h-.06Z" transform="translate(34.592 34.823)" fill-rule="evenodd"/>
      <path id="Trazado_1033135" data-name="Trazado 1033135" d="M1.391,7.782a.717.717,0,0,1-.716-.716v-5.5a.716.716,0,0,1,1.432,0v5.5A.716.716,0,0,1,1.391,7.782Z" transform="translate(21.519 29.472)" fill-rule="evenodd"/>
      <path id="Trazado_1033136" data-name="Trazado 1033136" d="M1.712,7.782A.717.717,0,0,1,1,7.066v-5.5a.716.716,0,0,1,1.432,0v5.5A.716.716,0,0,1,1.712,7.782Z" transform="translate(32.682 29.472)" fill-rule="evenodd"/>
      <path id="Trazado_1033137" data-name="Trazado 1033137" d="M31.869,13.566H1.12A.717.717,0,0,1,.4,12.85V2.083a.716.716,0,0,1,.716-.716H3.64a.717.717,0,0,1,.716.716A1.821,1.821,0,0,0,8,2.083a.716.716,0,0,1,.716-.716H24.276a.717.717,0,0,1,.716.716,1.82,1.82,0,1,0,3.64,0,.717.717,0,0,1,.716-.716h2.519a.717.717,0,0,1,.716.716V12.85a.716.716,0,0,1-.716.716ZM1.837,12.133H31.153V2.8H29.986a3.253,3.253,0,0,1-6.347,0H9.35A3.253,3.253,0,0,1,3,2.8H1.837v9.335Z" transform="translate(12.083 47.603)" fill-rule="evenodd"/>
      <path id="Trazado_1033138" data-name="Trazado 1033138" d="M4.3,7.8A3.253,3.253,0,1,1,7.557,4.549,3.257,3.257,0,0,1,4.3,7.8Zm0-5.073a1.82,1.82,0,1,0,1.82,1.82A1.822,1.822,0,0,0,4.3,2.729Z" transform="translate(34.592 45.137)" fill-rule="evenodd"/>
      <path id="Trazado_1033139" data-name="Trazado 1033139" d="M3.727,7.8A3.253,3.253,0,1,1,6.98,4.549,3.257,3.257,0,0,1,3.727,7.8Zm0-5.073a1.82,1.82,0,1,0,1.821,1.82A1.822,1.822,0,0,0,3.727,2.729Z" transform="translate(14.532 45.137)" fill-rule="evenodd"/>
      <path id="Trazado_1033140" data-name="Trazado 1033140" d="M51.229,2.948H41.446a.716.716,0,0,1,0-1.433h9.783a.716.716,0,0,1,0,1.433Zm-40.531,0H.845a.716.716,0,0,1,0-1.433H10.7a.716.716,0,0,1,0,1.433Z" transform="translate(2.506 52.792)" fill-rule="evenodd"/>
      <path id="Trazado_1033141" data-name="Trazado 1033141" d="M13.764,5.335H1.379a.717.717,0,0,1-.716-.716V.855A.717.717,0,0,1,1.379.139H13.764a.717.717,0,0,1,.716.716V4.618a.716.716,0,0,1-.716.716ZM2.095,3.9H13.047V1.572H2.095Z" transform="translate(21.081 4.848)" fill-rule="evenodd"/>
      <path id="Trazado_1033142" data-name="Trazado 1033142" d="M8.277,10.958a.717.717,0,0,1-.5-.2A14.311,14.311,0,0,0,1.687,7.075a.716.716,0,0,1-.424-1.047L4.029,1.237A.716.716,0,0,1,5.007.975l6.465,3.732a.716.716,0,0,1,.262.978L8.9,10.6a.718.718,0,0,1-.524.352.7.7,0,0,1-.1.007ZM2.948,5.976A15.674,15.674,0,0,1,8.108,9.1L10.136,5.59,4.912,2.574l-1.964,3.4Z" transform="translate(38.653 30.629)" fill-rule="evenodd"/>
      <path id="Trazado_1033143" data-name="Trazado 1033143" d="M2.05,9.785a.716.716,0,0,1-.62-1.074L5.838,1.076a.716.716,0,0,1,1.24.716L2.671,9.426a.717.717,0,0,1-.621.359Z" transform="translate(44.484 25.023)" fill-rule="evenodd"/>
      <path id="Trazado_1033144" data-name="Trazado 1033144" d="M2.655,9.2a.716.716,0,0,1-.709-.615l-.5-3.466a.72.72,0,0,1,.089-.46L3.725.874A.717.717,0,0,1,4.7.612L8.488,2.8a.717.717,0,0,1,.262.979L6.564,7.561a.717.717,0,0,1-.361.31L2.914,9.152a.723.723,0,0,1-.26.048ZM2.9,5.161l.333,2.328,2.213-.863,1.7-2.947L4.607,2.211Z" transform="translate(48.254 17.987)" fill-rule="evenodd"/>
      <path id="Trazado_1033145" data-name="Trazado 1033145" d="M6.338,13.073a6.277,6.277,0,0,1-5.056-10A.7.7,0,0,1,1.9,2.78a.716.716,0,0,1,.58.357l2.252,3.9L7.342,5.529,5.09,1.629A.717.717,0,0,1,5.631.559a6.277,6.277,0,1,1,.707,12.514ZM1.862,4.932A4.844,4.844,0,1,0,6.956,1.993l1.986,3.44a.716.716,0,0,1-.262.978L4.827,8.635a.717.717,0,0,1-.979-.262L1.862,4.932Z" transform="translate(0 18.123)" fill-rule="evenodd"/>
      <path id="Trazado_1033146" data-name="Trazado 1033146" d="M5.85,10.631a.717.717,0,0,1-.621-.359L.386,1.884a.716.716,0,1,1,1.24-.716L6.469,9.556a.716.716,0,0,1-.619,1.074Z" transform="translate(8.096 28.19)" fill-rule="evenodd"/>
      <path id="Trazado_1033147" data-name="Trazado 1033147" d="M1.261,11.1a.717.717,0,0,1-.716-.716V2.154a.716.716,0,1,1,1.432,0v8.231A.716.716,0,0,1,1.261,11.1Z" transform="translate(16.998 50.069)" fill-rule="evenodd"/>
      <path id="Trazado_1033148" data-name="Trazado 1033148" d="M1.838,11.1a.717.717,0,0,1-.716-.716V2.154a.716.716,0,0,1,1.433,0v8.231A.716.716,0,0,1,1.838,11.1Z" transform="translate(37.058 50.069)" fill-rule="evenodd"/>
      <path id="Trazado_1033149" data-name="Trazado 1033149" d="M13.823,17.6a8.225,8.225,0,0,0,5.212-2.038.72.72,0,0,1,.155-.129,18.115,18.115,0,0,0,5.167-8.311.718.718,0,0,1,.462-.472,3.538,3.538,0,0,0,2.345-3.239A4,4,0,0,0,25.731.43L25.46.821c-2.083,3.011-2.711,3.92-4.081,3.92a6.974,6.974,0,0,1-1.484-.24,24.545,24.545,0,0,0-6.1-.665A24.585,24.585,0,0,0,7.7,4.5a6.945,6.945,0,0,1-1.484.24c-1.37,0-2-.908-4.08-3.918L1.88.46a4,4,0,0,0-1.4,2.955A3.539,3.539,0,0,0,2.828,6.654a.713.713,0,0,1,.461.472,18.117,18.117,0,0,0,5.164,8.308.722.722,0,0,1,.163.136A8.223,8.223,0,0,0,13.823,17.6Z" transform="translate(14.828 14.988)" fill="#fec9a3" fill-rule="evenodd"/>
      <path id="Trazado_1033150" data-name="Trazado 1033150" d="M10.93,2.644a25.83,25.83,0,0,1,6.418.7,6.124,6.124,0,0,0,1.165.2c.584,0,1.035-.6,2.782-3.127H.565C2.312,2.947,2.764,3.55,3.347,3.55a6.132,6.132,0,0,0,1.165-.2,25.849,25.849,0,0,1,6.418-.7Z" transform="translate(17.692 14.746)" fill="#49648e" fill-rule="evenodd"/>
      <path id="Trazado_1033151" data-name="Trazado 1033151" d="M.548,12.345H22.585l-.754-6.32C21.34,1.912,16.163.039,11.561.039S1.792,1.913,1.3,6.024l-.753,6.32ZM17.758,8.79H5.373a.717.717,0,0,1-.716-.716V4.31a.717.717,0,0,1,.716-.716H17.758a.717.717,0,0,1,.716.716V8.073a.716.716,0,0,1-.716.716Z" transform="translate(17.086 1.392)" fill="#3c5174" fill-rule="evenodd"/>
      <path id="Trazado_1033152" data-name="Trazado 1033152" d="M.7,2.509H11.655V.179H.7Z" transform="translate(22.473 6.241)" fill="#d6d6d4" fill-rule="evenodd"/>
      <path id="Trazado_1033153" data-name="Trazado 1033153" d="M9.619,6.618a4.809,4.809,0,0,0-.484-3.675A4.864,4.864,0,0,0,5.563.561L7.548,4a.716.716,0,0,1-.262.978L3.435,7.2a.717.717,0,0,1-.979-.262L.469,3.5A4.843,4.843,0,0,0,7.22,9.638.722.722,0,0,1,7.5,9.476,4.811,4.811,0,0,0,9.619,6.618Z" transform="translate(1.393 19.555)" fill="#e6e6e6" fill-rule="evenodd"/>
      <path id="Trazado_1033154" data-name="Trazado 1033154" d="M.715.905V4.769l5.026,7.022,5.026-7.021V.906a9.141,9.141,0,0,1-5.026,1.58A9.142,9.142,0,0,1,.715.905Z" transform="translate(22.911 31.54)" fill="#fec9a3" fill-rule="evenodd"/>
      <path id="Trazado_1033155" data-name="Trazado 1033155" d="M1.484,3.513l.333,2.328L4.03,4.979l1.7-2.947L3.187.563Z" transform="translate(49.673 19.635)" fill="#e6e6e6" fill-rule="evenodd"/>
      <path id="Trazado_1033156" data-name="Trazado 1033156" d="M19.789,3.864a3.264,3.264,0,0,1-2.457-2.458H3.042A3.263,3.263,0,0,1,.585,3.864v6.877h19.2V3.864Z" transform="translate(18.39 48.995)" fill="#808da4" fill-rule="evenodd"/>
      <path id="Trazado_1033157" data-name="Trazado 1033157" d="M4.068,10.742V3.864A3.263,3.263,0,0,1,1.611,1.407H.444v9.335H4.068Z" transform="translate(13.475 48.995)" fill="#808da4" fill-rule="evenodd"/>
      <path id="Trazado_1033158" data-name="Trazado 1033158" d="M1.161,3.864v6.877H4.785V1.407H3.618A3.264,3.264,0,0,1,1.161,3.864Z" transform="translate(38.451 48.995)" fill="#808da4" fill-rule="evenodd"/>
      <path id="Trazado_1033159" data-name="Trazado 1033159" d="M1.3,1.556v4h8.86a32.417,32.417,0,0,0-.332-4H1.3Z" transform="translate(43.365 54.185)" fill="#fec9a3" fill-rule="evenodd"/>
      <path id="Trazado_1033160" data-name="Trazado 1033160" d="M9.016,5.551v-4H.489a32.39,32.39,0,0,0-.332,4H9.016Z" transform="translate(3.471 54.185)" fill="#fec9a3" fill-rule="evenodd"/>
      <g id="Grupo_1176795" data-name="Grupo 1176795" transform="translate(4.204 37.254)">
        <path id="Trazado_1033161" data-name="Trazado 1033161" d="M.173,17.016H8.456V12.393a.716.716,0,0,1,.716-.716h1.8V1.07q-.3.139-.6.294a.721.721,0,0,1-.257.136C5.29,4.127,1.558,9.891.173,17.016Z" transform="translate(-0.173 0.038)" fill="#3c5174" fill-rule="evenodd"/>
        <path id="Trazado_1033162" data-name="Trazado 1033162" d="M.656,12.755H14.794V1.04h-.88L8.386,8.763a.716.716,0,0,1-1.165,0L1.693,1.04H.656V12.755Z" transform="translate(16.645 -1.04)" fill="#3c5174" fill-rule="evenodd"/>
        <path id="Trazado_1033163" data-name="Trazado 1033163" d="M1.232,1.071v10.6H3.041a.717.717,0,0,1,.716.716v4.622h8.284A24.823,24.823,0,0,0,5.669,4.2a.718.718,0,0,1-.152-.114A15.158,15.158,0,0,0,1.232,1.071Z" transform="translate(36.707 0.046)" fill="#3c5174" fill-rule="evenodd"/>
      </g>
      <path id="Trazado_1033164" data-name="Trazado 1033164" d="M4.725,10.772V1.6q-.184-.059-.37-.112l-.012,0A11.7,11.7,0,0,0,1.151,1.04h-.06v9.736a3.238,3.238,0,0,1,3.634,0v0Z" transform="translate(35.985 36.215)" fill="#6b809b" fill-rule="evenodd"/>
      <path id="Trazado_1033165" data-name="Trazado 1033165" d="M4.15,3.019a1.814,1.814,0,1,0,.006.136q0-.056,0-.112c0-.008,0-.016,0-.025Z" transform="translate(15.924 46.529)" fill="#334562" fill-rule="evenodd"/>
      <path id="Trazado_1033166" data-name="Trazado 1033166" d="M1.091,3.179a1.82,1.82,0,0,0,3.64-.024c0-.046,0-.091,0-.135a1.821,1.821,0,0,0-3.636.135c0,.008,0,.016,0,.024Z" transform="translate(35.985 46.529)" fill="#334562" fill-rule="evenodd"/>
      <path id="Trazado_1033167" data-name="Trazado 1033167" d="M4.148,10.771V1.04H4.1A11.738,11.738,0,0,0,.514,1.6v9.173a3.238,3.238,0,0,1,3.634,0v0Z" transform="translate(15.924 36.215)" fill="#6b809b" fill-rule="evenodd"/>
      <path id="Trazado_1033168" data-name="Trazado 1033168" d="M52.191,26.347H.833a.717.717,0,0,1-.716-.716C.117,12.049,8.116,1,17.949,1h2.891a.717.717,0,0,1,.582.3l5.16,7.209L31.742,1.3a.717.717,0,0,1,.582-.3h2.741C44.869,1,52.85,11.984,52.9,25.51a.683.683,0,0,1,.011.121.718.718,0,0,1-.717.716ZM1.557,24.914h49.9C51.189,12.452,43.939,2.432,35.065,2.432H32.692l-5.528,7.724a.716.716,0,0,1-1.165,0L20.471,2.432H17.949c-8.873,0-16.123,10.021-16.392,22.482Z" transform="translate(2.071 34.822)" fill-rule="evenodd"/>
      <path id="Trazado_1033169" data-name="Trazado 1033169" d="M6.379,7.451,8.405,3.942l-2.6-1.5-.015-.008-.017-.01-2.6-1.5-1.964,3.4.071.026a15.7,15.7,0,0,1,5.089,3.1l0,0Z" transform="translate(40.384 32.277)" fill="#ff5959" fill-rule="evenodd"/>
    </g>
  </g>
</svg>
