<svg xmlns="http://www.w3.org/2000/svg" xmlns:xlink="http://www.w3.org/1999/xlink" width="108" height="108" viewBox="0 0 108 108">
  <defs>
    <filter id="Trazado_904820" x="0" y="0" width="108" height="108" filterUnits="userSpaceOnUse">
      <feOffset dy="3" input="SourceAlpha"/>
      <feGaussianBlur stdDeviation="3" result="blur"/>
      <feFlood flood-opacity="0.161"/>
      <feComposite operator="in" in2="blur"/>
      <feComposite in="SourceGraphic"/>
    </filter>
  </defs>
  <g id="Grupo_1176750" data-name="Grupo 1176750" transform="translate(9 6)">
    <g id="Grupo_1173585" data-name="Grupo 1173585" transform="translate(0 0)">
      <g id="Grupo_1173428" data-name="Grupo 1173428">
        <g id="Grupo_1171958" data-name="Grupo 1171958">
          <g id="Grupo_1167341" data-name="Grupo 1167341">
            <g id="Grupo_1166792" data-name="Grupo 1166792">
              <g transform="matrix(1, 0, 0, 1, -9, -6)" filter="url(#Trazado_904820)">
                <g id="Trazado_904820-2" data-name="Trazado 904820" transform="translate(9 6)" fill="#fdfae8">
                  <path d="M 44.99999618530273 88.49999237060547 C 39.12687301635742 88.49999237060547 33.43022155761719 87.35006713867188 28.06829643249512 85.08216857910156 C 22.88852119445801 82.89130401611328 18.23629570007324 79.75457763671875 14.24084663391113 75.75914001464844 C 10.24540901184082 71.76369476318359 7.108683586120605 67.11146545410156 4.917821407318115 61.93169403076172 C 2.649921178817749 56.56976699829102 1.499996185302734 50.87311553955078 1.499996185302734 44.99999237060547 C 1.499996185302734 39.12686920166016 2.649921178817749 33.43021774291992 4.917821407318115 28.06829261779785 C 7.108683586120605 22.88851737976074 10.24540901184082 18.23630523681641 14.24084663391113 14.24085521697998 C 18.23629570007324 10.24540519714355 22.88852119445801 7.108692169189453 28.06829643249512 4.917829990386963 C 33.43022155761719 2.649929761886597 39.12687301635742 1.500004887580872 44.99999618530273 1.500004887580872 C 50.87311935424805 1.500004887580872 56.56977081298828 2.649929761886597 61.93169784545898 4.917829990386963 C 67.11147308349609 7.108692169189453 71.76369476318359 10.24540519714355 75.75914764404297 14.24085521697998 C 79.75458526611328 18.23630523681641 82.89131164550781 22.88851737976074 85.08216857910156 28.06829261779785 C 87.35007476806641 33.43021774291992 88.5 39.12686920166016 88.5 44.99999237060547 C 88.5 50.87311553955078 87.35007476806641 56.56976699829102 85.08216857910156 61.93169403076172 C 82.89131164550781 67.11146545410156 79.75458526611328 71.76369476318359 75.75914764404297 75.75914001464844 C 71.76369476318359 79.75457763671875 67.11147308349609 82.89130401611328 61.93169784545898 85.08216857910156 C 56.56977081298828 87.35006713867188 50.87311935424805 88.49999237060547 44.99999618530273 88.49999237060547 Z" stroke="none"/>
                  <path d="M 44.99999618530273 2.999992370605469 C 39.32870864868164 2.999992370605469 33.82865142822266 4.11004638671875 28.65262603759766 6.299331665039062 C 23.65165710449219 8.414566040039062 19.15968322753906 11.44333648681641 15.301513671875 15.30150604248047 C 11.44333648681641 19.15967559814453 8.414566040039062 23.65164947509766 6.299339294433594 28.65262222290039 C 4.110054016113281 33.82864761352539 2.999992370605469 39.32870483398438 2.999992370605469 44.99999237060547 C 2.999992370605469 50.67127990722656 4.110054016113281 56.17132186889648 6.299339294433594 61.34736633300781 C 8.414566040039062 66.34833526611328 11.44333648681641 70.84029388427734 15.301513671875 74.69846343994141 C 19.15968322753906 78.55663299560547 23.65165710449219 81.58540344238281 28.65262603759766 83.70063781738281 C 33.82865142822266 85.88992309570312 39.32870864868164 86.99997711181641 44.99999618530273 86.99997711181641 C 50.67128372192383 86.99997711181641 56.17134094238281 85.88992309570312 61.34736633300781 83.70063781738281 C 66.34834289550781 81.58540344238281 70.84030914306641 78.55663299560547 74.69847869873047 74.69846343994141 C 78.55665588378906 70.84029388427734 81.58542633056641 66.34833526611328 83.70065307617188 61.34736633300781 C 85.88993835449219 56.17132186889648 87 50.67127990722656 87 44.99999237060547 C 87 39.32870483398438 85.88993835449219 33.82864761352539 83.70065307617188 28.65262222290039 C 81.58542633056641 23.65164947509766 78.55665588378906 19.15967559814453 74.69847869873047 15.30150604248047 C 70.84030914306641 11.44333648681641 66.34834289550781 8.414566040039062 61.34736633300781 6.299331665039062 C 56.17134094238281 4.11004638671875 50.67128372192383 2.999992370605469 44.99999618530273 2.999992370605469 M 44.99999618530273 -7.62939453125e-06 C 69.85281372070312 -7.62939453125e-06 90 20.14717864990234 90 44.99999237060547 C 90 69.85279083251953 69.85281372070312 89.99997711181641 44.99999618530273 89.99997711181641 C 20.14717864990234 89.99997711181641 -7.62939453125e-06 69.85279083251953 -7.62939453125e-06 44.99999237060547 C -7.62939453125e-06 20.14717864990234 20.14717864990234 -7.62939453125e-06 44.99999618530273 -7.62939453125e-06 Z" stroke="none" fill="#a6931f"/>
                </g>
              </g>
            </g>
          </g>
        </g>
      </g>
    </g>
    <g id="_18-Mechanic" data-name="18-Mechanic" transform="translate(-2.115 1.252)">
      <path id="Trazado_1033214" data-name="Trazado 1033214" d="M146.832,272l11.635,3.232a7.666,7.666,0,0,1,5.614,7.387v15.255H120V282.619a7.666,7.666,0,0,1,5.615-7.387L137.249,272Z" transform="translate(-91.542 -225.335)" fill="#35495e"/>
      <path id="Trazado_1033215" data-name="Trazado 1033215" d="M279.666,231.98v4.794l-3.833,6.708L272,236.774V231.98Z" transform="translate(-225.335 -190.109)" fill="#febf91"/>
      <path id="Trazado_1033216" data-name="Trazado 1033216" d="M376,120h.958a2.875,2.875,0,1,1,0,5.75H376Z" transform="translate(-316.877 -91.542)" fill="#febf91"/>
      <path id="Trazado_1033217" data-name="Trazado 1033217" d="M203.833,125.75h-.958a2.875,2.875,0,1,1,0-5.75h.958Z" transform="translate(-161.959 -91.542)" fill="#febf91"/>
      <rect id="Rectángulo_415835" data-name="Rectángulo 415835" width="17.083" height="25.735" rx="8.541" transform="translate(41.957 18.921)" fill="#fecca8"/>
      <g id="Grupo_1176801" data-name="Grupo 1176801" transform="translate(39.957 16.958)">
        <path id="Trazado_1033218" data-name="Trazado 1033218" d="M304,278.708l5.75,1.917,1-8.081L308.791,272h-.958Z" transform="translate(-293.459 -242.293)" fill="#35495e"/>
        <path id="Trazado_1033219" data-name="Trazado 1033219" d="M253.828,278.708l-5.75,1.917L247,272.544l1.958-.544h1.037Z" transform="translate(-243.287 -242.293)" fill="#35495e"/>
        <path id="Trazado_1033220" data-name="Trazado 1033220" d="M216,33.583V31.666A7.666,7.666,0,0,1,223.666,24h5.75a7.666,7.666,0,0,1,7.666,7.666v1.917Z" transform="translate(-216 -24)" fill="#35495e"/>
        <path id="Trazado_1033221" data-name="Trazado 1033221" d="M233.249,108.791H219.833A3.833,3.833,0,0,1,216,104.958V104h21.082v.958A3.833,3.833,0,0,1,233.249,108.791Z" transform="translate(-216 -94.417)" fill="#35495e"/>
      </g>
      <path id="Trazado_1033222" data-name="Trazado 1033222" d="M184,376h28.749v13.416H184Z" transform="translate(-147.876 -316.877)" fill="#8b5e3c"/>
      <path id="Trazado_1033223" data-name="Trazado 1033223" d="M384,272h2.875a1.917,1.917,0,0,1,1.917,1.917v14.374h-2.875A1.917,1.917,0,0,1,384,286.374Z" transform="translate(-323.919 -225.335)" fill="#8b5e3c"/>
      <path id="Trazado_1033224" data-name="Trazado 1033224" d="M185.917,272h2.875v14.374a1.917,1.917,0,0,1-1.917,1.917H184V273.917A1.917,1.917,0,0,1,185.917,272Z" transform="translate(-147.876 -225.335)" fill="#8b5e3c"/>
      <path id="Trazado_1033225" data-name="Trazado 1033225" d="M232,440h17.249v5.75H232Z" transform="translate(-190.126 -373.211)" fill="#7f8b8c"/>
      <path id="Trazado_1033226" data-name="Trazado 1033226" d="M280,72h5.75v3.833H280Z" transform="translate(-232.377 -49.292)" fill="#8b5e3c"/>
      <path id="Trazado_1033227" data-name="Trazado 1033227" d="M41.249,49.737V47.513l-1.84-.783-.648-1.564.748-1.855L37.936,41.74l-1.853.748-1.564-.648L33.737,40H31.513l-.783,1.84-1.564.648-1.855-.748L25.74,43.313l.748,1.853-.648,1.564L24,47.512v2.224l1.84.783.648,1.564-.748,1.855,1.573,1.572,1.853-.748,1.564.648.782,1.839h2.224l.783-1.84,1.564-.648,1.855.748,1.572-1.573-.748-1.853.648-1.564Z" transform="translate(-7.042 -21.125)" fill="#7f8b8c"/>
      <circle id="Elipse_11504" data-name="Elipse 11504" cx="2.884" cy="2.884" r="2.884" transform="translate(22.656 24.689)" fill="#f1f2f2"/>
      <path id="Trazado_1033228" data-name="Trazado 1033228" d="M24,216.192v6.049l5.271,3.025,5.271-3.025v-6.049l-5.271-3.025Z" transform="translate(-7.042 -173.549)" fill="#7f8b8c"/>
      <ellipse id="Elipse_11505" data-name="Elipse 11505" cx="2.219" cy="2.108" rx="2.219" ry="2.108" transform="translate(19.993 43.547)" fill="#eceff0"/>
      <path id="Trazado_1033229" data-name="Trazado 1033229" d="M151.682,48.974l-1.35-.375v-.017a2.878,2.878,0,0,0-2.875-2.875h-2.875a.958.958,0,0,0-.958.958v.07l-3.577-.993a.947.947,0,0,0-.123-.025h0a.976.976,0,0,0-.129-.009v-.9a8.583,8.583,0,0,0,4.791-7.728V35.166A3.831,3.831,0,0,0,146.472,28a4.829,4.829,0,0,0,.026-.5V24.625A8.634,8.634,0,0,0,137.874,16h-5.75a8.634,8.634,0,0,0-8.625,8.625V27.5a4.829,4.829,0,0,0,.026.5,3.831,3.831,0,0,0,1.89,7.164v1.917a8.583,8.583,0,0,0,4.791,7.728v.9h-.078a.955.955,0,0,0-.256.035l-3.5.993v-.07a.958.958,0,0,0-.958-.958h-2.875a2.878,2.878,0,0,0-2.875,2.875V48.6l-1.35.375A8.65,8.65,0,0,0,112,57.284V72.539a.958.958,0,0,0,.958.958h44.081a.958.958,0,0,0,.958-.958V57.284A8.65,8.65,0,0,0,151.682,48.974Zm-6.142-1.35h1.917a.959.959,0,0,1,.958.958V62H146.5a.959.959,0,0,1-.958-.958Zm-1.917,10.541h-7.666V54.7l4.488,1.5a.958.958,0,0,0,1.254-.791l.863-6.978,1.06.294ZM130.338,47.623h.271l2.977,5.211-3.541,1.18-.812-6.084Zm3.7-1.917h1.917a8.628,8.628,0,0,0,1.916-.216v.919L135,51.442l-2.875-5.031v-.919A8.624,8.624,0,0,0,134.041,45.707Zm5.619,1.917,1.036.287-.755,6.1-3.53-1.176,2.977-5.211ZM125.416,27.5h19.166a2.878,2.878,0,0,1-2.875,2.875H128.291A2.878,2.878,0,0,1,125.416,27.5Zm11.5-1.917h-3.833V23.666h3.833Zm9.583,5.75a1.919,1.919,0,0,1-1.917,1.917V31.33a4.828,4.828,0,0,0,1.269-1.43A1.923,1.923,0,0,1,146.5,31.333ZM132.124,17.917h5.75a6.716,6.716,0,0,1,6.708,6.708v.958h-5.75V22.708a.958.958,0,0,0-.958-.958h-5.75a.958.958,0,0,0-.958.958v2.875h-5.75v-.958a6.716,6.716,0,0,1,6.708-6.708ZM123.5,31.333a1.923,1.923,0,0,1,.648-1.432,4.828,4.828,0,0,0,1.269,1.43v1.919A1.919,1.919,0,0,1,123.5,31.333Zm3.833,5.75V32.2a4.8,4.8,0,0,0,.958.1h1.917v1.917h1.917V32.291h5.75v1.917h1.917V32.291h1.917a4.8,4.8,0,0,0,.958-.1v4.888a6.7,6.7,0,0,1-6.708,6.708h-1.917a6.7,6.7,0,0,1-6.708-6.708Zm.037,11.366.93,6.969a.958.958,0,0,0,1.253.782l4.488-1.5v3.462h-7.666v-9.44Zm-5.787.134a.959.959,0,0,1,.958-.958h1.917V61.039A.959.959,0,0,1,123.5,62h-1.917Zm-7.666,8.7a6.728,6.728,0,0,1,4.913-6.464l.837-.233V71.581h-5.75Zm13.416,14.3V67.747h15.333v3.833Zm17.249,0V66.789a.958.958,0,0,0-.958-.958H126.374a.958.958,0,0,0-.958.958v4.791h-3.833V63.914H123.5a2.878,2.878,0,0,0,2.875-2.875v-.958h17.249v.958a2.878,2.878,0,0,0,2.875,2.875h1.917v7.666Zm11.5,0h-5.75V50.588l.837.233a6.728,6.728,0,0,1,4.912,6.464Z" transform="translate(-84.501)"/>
      <path id="Trazado_1033230" data-name="Trazado 1033230" d="M292.511,204.657l.958-.958-1.355-1.355-.678.678H288v1.917h3.833a.958.958,0,0,0,.678-.281Z" transform="translate(-239.418 -164.022)"/>
      <path id="Trazado_1033231" data-name="Trazado 1033231" d="M34.583,39.59,33.1,38.96l-.347-.84.6-1.492a.958.958,0,0,0-.211-1.036L31.572,34.02a.958.958,0,0,0-1.036-.211l-1.49.6-.84-.348-.629-1.479A.958.958,0,0,0,26.7,32H24.472a.958.958,0,0,0-.882.583l-.63,1.48-.84.348-1.491-.6a.958.958,0,0,0-1.036.211L18.02,35.594a.958.958,0,0,0-.211,1.036l.6,1.49-.348.84-1.479.629A.958.958,0,0,0,16,40.47v2.224a.958.958,0,0,0,.583.882l1.48.63.347.84-.6,1.492a.958.958,0,0,0,.211,1.036l1.573,1.572a.958.958,0,0,0,1.036.211l1.49-.6.84.348.628,1.479a.958.958,0,0,0,.882.583h2.224a.958.958,0,0,0,.882-.583l.63-1.48.84-.347,1.491.6a.958.958,0,0,0,1.036-.211l1.573-1.573a.958.958,0,0,0,.211-1.036l-.6-1.49.348-.84,1.479-.628a.958.958,0,0,0,.584-.882V40.472a.958.958,0,0,0-.583-.882Zm-1.333,2.472-1.256.534a.958.958,0,0,0-.511.515l-.648,1.564a.958.958,0,0,0,0,.725l.511,1.265-.676.676L29.4,46.831a.958.958,0,0,0-.725,0l-1.564.648a.958.958,0,0,0-.515.51l-.535,1.257H25.1l-.534-1.256a.958.958,0,0,0-.515-.511l-1.564-.648a.959.959,0,0,0-.725,0l-1.266.511-.676-.676.511-1.267a.957.957,0,0,0,0-.725l-.648-1.564a.958.958,0,0,0-.51-.515l-1.257-.535V41.1l1.256-.534a.958.958,0,0,0,.51-.515l.648-1.564a.958.958,0,0,0,0-.725l-.51-1.265.676-.676,1.267.511a.958.958,0,0,0,.725,0l1.564-.648a.958.958,0,0,0,.515-.51l.535-1.257h.957l.534,1.256a.958.958,0,0,0,.515.511l1.564.648a.958.958,0,0,0,.725,0l1.266-.511.676.676-.511,1.267a.957.957,0,0,0,0,.725l.648,1.564a.958.958,0,0,0,.51.515l1.257.535Z" transform="translate(0 -14.083)"/>
      <path id="Trazado_1033232" data-name="Trazado 1033232" d="M67.833,80a3.833,3.833,0,1,0,3.833,3.833A3.833,3.833,0,0,0,67.833,80Zm0,5.75a1.917,1.917,0,1,1,1.917-1.917A1.917,1.917,0,0,1,67.833,85.75Z" transform="translate(-42.25 -56.334)"/>
      <path id="Trazado_1033233" data-name="Trazado 1033233" d="M22.229,219.182a.958.958,0,0,1-.477-.127l-5.271-3.025A.958.958,0,0,1,16,215.2V209.15a.958.958,0,0,1,.481-.831l5.271-3.025a.958.958,0,0,1,.954,0l5.271,3.025a.958.958,0,0,1,.481.831V215.2a.958.958,0,0,1-.481.831l-5.271,3.025a.958.958,0,0,1-.477.127Zm-4.312-4.538,4.312,2.475,4.312-2.475V209.7l-4.312-2.475L17.917,209.7Z" transform="translate(0 -166.508)"/>
      <path id="Trazado_1033234" data-name="Trazado 1033234" d="M45.114,244.229a3.114,3.114,0,1,1,3.114-3.114,3.114,3.114,0,0,1-3.114,3.114Zm0-4.312a1.2,1.2,0,1,0,1.2,1.2A1.2,1.2,0,0,0,45.114,239.917Z" transform="translate(-22.886 -195.408)"/>
    </g>
  </g>
</svg>
