<svg xmlns="http://www.w3.org/2000/svg" xmlns:xlink="http://www.w3.org/1999/xlink" width="113" height="113" viewBox="0 0 113 113">
  <defs>
    <filter id="Trazado_982547" x="0" y="0" width="113" height="113" filterUnits="userSpaceOnUse">
      <feOffset dy="3" input="SourceAlpha"/>
      <feGaussianBlur stdDeviation="3" result="blur"/>
      <feFlood flood-opacity="0.161"/>
      <feComposite operator="in" in2="blur"/>
      <feComposite in="SourceGraphic"/>
    </filter>
  </defs>
  <g id="Grupo_1176794" data-name="Grupo 1176794" transform="translate(-585.5 -1344.641)">
    <g id="Grupo_1176298" data-name="Grupo 1176298" transform="translate(-316 46.496)">
      <g id="Grupo_1171048" data-name="Grupo 1171048" transform="translate(910.5 1304.145)">
        <g id="Grupo_1148525" data-name="Grupo 1148525" transform="translate(0)">
          <g transform="matrix(1, 0, 0, 1, -9, -6)" filter="url(#Trazado_982547)">
            <g id="Trazado_982547-2" data-name="Trazado 982547" transform="translate(9 6)" fill="#f2f8ff">
              <path d="M 47.5 93.5 C 41.28937149047852 93.5 35.26533508300781 92.28397369384766 29.59518623352051 89.88570404052734 C 24.11771965026855 87.56893157958984 19.19813346862793 84.25196075439453 14.97309303283691 80.02691650390625 C 10.74804019927979 75.80186462402344 7.431066513061523 70.88229370117188 5.114293098449707 65.40481567382812 C 2.716026782989502 59.73468017578125 1.5 53.71062850952148 1.5 47.5 C 1.5 41.28937149047852 2.716026782989502 35.26533508300781 5.114293098449707 29.59518623352051 C 7.431066513061523 24.11771965026855 10.74804019927979 19.19813346862793 14.97309303283691 14.97309303283691 C 19.19813346862793 10.74804019927979 24.11771965026855 7.431066513061523 29.59518623352051 5.114293098449707 C 35.26533508300781 2.716026782989502 41.28937149047852 1.5 47.5 1.5 C 53.71062850952148 1.5 59.73468017578125 2.716026782989502 65.40481567382812 5.114293098449707 C 70.88229370117188 7.431066513061523 75.80186462402344 10.74804019927979 80.02691650390625 14.97309303283691 C 84.25196075439453 19.19813346862793 87.56893157958984 24.11771965026855 89.88570404052734 29.59518623352051 C 92.28397369384766 35.26533508300781 93.5 41.28937149047852 93.5 47.5 C 93.5 53.71062850952148 92.28397369384766 59.73468017578125 89.88570404052734 65.40481567382812 C 87.56893157958984 70.88229370117188 84.25196075439453 75.80186462402344 80.02691650390625 80.02691650390625 C 75.80186462402344 84.25196075439453 70.88229370117188 87.56893157958984 65.40481567382812 89.88570404052734 C 59.73468017578125 92.28397369384766 53.71062850952148 93.5 47.5 93.5 Z" stroke="none"/>
              <path d="M 47.5 3 C 41.49121475219727 3 35.66376876831055 4.176155090332031 30.17950439453125 6.495796203613281 C 24.88084411621094 8.736953735351562 20.12152099609375 11.94598388671875 16.03375244140625 16.03375244140625 C 11.94598388671875 20.12152099609375 8.736953735351562 24.88084411621094 6.495796203613281 30.17950439453125 C 4.176155090332031 35.66376876831055 3 41.49121475219727 3 47.5 C 3 53.50878524780273 4.176155090332031 59.33623123168945 6.495796203613281 64.82049560546875 C 8.736953735351562 70.11915588378906 11.94598388671875 74.87847900390625 16.03375244140625 78.96624755859375 C 20.12152099609375 83.05401611328125 24.88084411621094 86.26304626464844 30.17950439453125 88.50419616699219 C 35.66376876831055 90.82384490966797 41.49121475219727 92 47.5 92 C 53.50878524780273 92 59.33623123168945 90.82384490966797 64.82049560546875 88.50419616699219 C 70.11915588378906 86.26304626464844 74.87847900390625 83.05401611328125 78.96624755859375 78.96624755859375 C 83.05401611328125 74.87847900390625 86.26304626464844 70.11915588378906 88.50419616699219 64.82049560546875 C 90.82384490966797 59.33623123168945 92 53.50878524780273 92 47.5 C 92 41.49121475219727 90.82384490966797 35.66376876831055 88.50419616699219 30.17950439453125 C 86.26304626464844 24.88084411621094 83.05401611328125 20.12152099609375 78.96624755859375 16.03375244140625 C 74.87847900390625 11.94598388671875 70.11915588378906 8.736953735351562 64.82049560546875 6.495796203613281 C 59.33623123168945 4.176155090332031 53.50878524780273 3 47.5 3 M 47.5 0 C 73.7335205078125 0 95 21.2664794921875 95 47.5 C 95 73.7335205078125 73.7335205078125 95 47.5 95 C 21.2664794921875 95 0 73.7335205078125 0 47.5 C 0 21.2664794921875 21.2664794921875 0 47.5 0 Z" stroke="none" fill="#2d3bf3"/>
            </g>
          </g>
        </g>
      </g>
    </g>
    <g id="car-service_2052448" transform="translate(610.051 1366)">
      <path id="Trazado_1033099" data-name="Trazado 1033099" d="M10,53H4a2,2,0,0,1-2-2V44.042a5,5,0,0,1,3.952-4.889L16,37l8.2-10.658A6,6,0,0,1,28.954,24H41.045A6,6,0,0,1,45.8,26.342L54,37l8,4V51a2,2,0,0,1-2,2H54" fill="#669e4f"/>
      <path id="Trazado_1033100" data-name="Trazado 1033100" d="M45.8,26.342A6,6,0,0,0,41.046,24H28.954A6,6,0,0,0,24.2,26.342L16,37,5.952,39.153A5,5,0,0,0,2,44.042V44.7A38.173,38.173,0,0,0,20,49c14.8,0,27.092-7.685,29.546-17.79Z" fill="#78b75b"/>
      <path id="Trazado_1033101" data-name="Trazado 1033101" d="M49,38l-6.1-8.72A3,3,0,0,0,40.438,28H29.562A3,3,0,0,0,27.1,29.28L21,38Z" fill="#c7e2fc"/>
      <path id="Trazado_1033102" data-name="Trazado 1033102" d="M22.73,35.529A24.2,24.2,0,0,0,27.5,36c6.91,0,12.82-2.835,15.277-6.853A2.991,2.991,0,0,0,40.438,28H29.562A3,3,0,0,0,27.1,29.28Z" fill="#ebf7fe"/>
      <circle id="Elipse_11498" data-name="Elipse 11498" cx="17" cy="17" r="17" transform="translate(28 2)" fill="#a1cdfb"/>
      <path id="Trazado_1033103" data-name="Trazado 1033103" d="M43,12V6H39v6" fill="#8892a0"/>
      <path id="Trazado_1033104" data-name="Trazado 1033104" d="M49,12H40a4,4,0,0,0-4,4V28a2,2,0,0,0,2,2H52a2,2,0,0,0,2-2V17Zm1,11H45V16h2l3,3Z" fill="#c66b60"/>
      <path id="Trazado_1033105" data-name="Trazado 1033105" d="M45,23V16h2l2.65,2.65a10.316,10.316,0,0,0-.319-6.319L49,12H40a4,4,0,0,0-4,4V26.732A12.02,12.02,0,0,0,38.5,27a11.685,11.685,0,0,0,8.871-4Z" fill="#e47c6e"/>
      <path id="Trazado_1033106" data-name="Trazado 1033106" d="M8,21V20l3-6,3,6v1a3,3,0,0,1-6,0Z" fill="#a1cdfb"/>
      <path id="Trazado_1033107" data-name="Trazado 1033107" d="M2,44.042V47l4,0V43L2.122,43A5.009,5.009,0,0,0,2,44.042Z" fill="#f9d18b"/>
      <path id="Trazado_1033108" data-name="Trazado 1033108" d="M58,49h4V41l-4-2Z" fill="#e47c6e"/>
      <circle id="Elipse_11499" data-name="Elipse 11499" cx="7" cy="7" r="7" transform="translate(10 46)" fill="#4d5d7a"/>
      <circle id="Elipse_11500" data-name="Elipse 11500" cx="7" cy="7" r="7" transform="translate(40 46)" fill="#4d5d7a"/>
      <circle id="Elipse_11501" data-name="Elipse 11501" cx="3" cy="3" r="3" transform="translate(14 50)" fill="#8892a0"/>
      <circle id="Elipse_11502" data-name="Elipse 11502" cx="3" cy="3" r="3" transform="translate(44 50)" fill="#8892a0"/>
      <path id="Trazado_1033109" data-name="Trazado 1033109" d="M1,61H63v2H1Z"/>
      <path id="Trazado_1033110" data-name="Trazado 1033110" d="M17,61a8,8,0,1,1,8-8A8.009,8.009,0,0,1,17,61Zm0-14a6,6,0,1,0,6,6A6.006,6.006,0,0,0,17,47Z"/>
      <path id="Trazado_1033111" data-name="Trazado 1033111" d="M17,57a4,4,0,1,1,4-4A4,4,0,0,1,17,57Zm0-6a2,2,0,1,0,2,2A2,2,0,0,0,17,51Z"/>
      <path id="Trazado_1033112" data-name="Trazado 1033112" d="M47,61a8,8,0,1,1,8-8A8.009,8.009,0,0,1,47,61Zm0-14a6,6,0,1,0,6,6A6.006,6.006,0,0,0,47,47Z"/>
      <path id="Trazado_1033113" data-name="Trazado 1033113" d="M47,57a4,4,0,1,1,4-4A4,4,0,0,1,47,57Zm0-6a2,2,0,1,0,2,2A2,2,0,0,0,47,51Z"/>
      <path id="Trazado_1033114" data-name="Trazado 1033114" d="M24,52H40v2H24Z"/>
      <path id="Trazado_1033115" data-name="Trazado 1033115" d="M60,54H54V52h6a1,1,0,0,0,1-1V41.618l-7.447-3.724a.991.991,0,0,1-.345-.285L51.263,35.08l1.585-1.219,1.806,2.347,7.794,3.9A1,1,0,0,1,63,41V51a3,3,0,0,1-3,3Z"/>
      <path id="Trazado_1033116" data-name="Trazado 1033116" d="M10,54H4a3,3,0,0,1-3-3V44.042a6.03,6.03,0,0,1,4.743-5.866L15.431,36.1l7.975-10.367A6.981,6.981,0,0,1,28.713,23l.069,2a4.987,4.987,0,0,0-3.791,1.948l-8.2,10.658a1,1,0,0,1-.583.368L6.162,40.131A4.021,4.021,0,0,0,3,44.042V51a1,1,0,0,0,1,1h6Z"/>
      <path id="Trazado_1033117" data-name="Trazado 1033117" d="M62,50H58a1,1,0,0,1-1-1V39h2v9h3Z"/>
      <path id="Trazado_1033118" data-name="Trazado 1033118" d="M49,39H21a1,1,0,0,1-.819-1.573l6.1-8.721A4,4,0,0,1,29.562,27h1.014v2H29.562a2,2,0,0,0-1.638.853L22.92,37H47.08l-.424-.606L48.3,35.248l1.525,2.18A1,1,0,0,1,49,39Z"/>
      <path id="Trazado_1033119" data-name="Trazado 1033119" d="M34,33h2v5H34Z"/>
      <path id="Trazado_1033120" data-name="Trazado 1033120" d="M32,41h4v2H32Z"/>
      <path id="Trazado_1033121" data-name="Trazado 1033121" d="M46,41h4v2H46Z"/>
      <path id="Trazado_1033122" data-name="Trazado 1033122" d="M6,48H2V46H5V44H2V42H6a1,1,0,0,1,1,1v4A1,1,0,0,1,6,48Z"/>
      <path id="Trazado_1033123" data-name="Trazado 1033123" d="M8,19.241h2V39.759H8Z" transform="matrix(0.731, -0.682, 0.682, 0.731, -17.708, 14.075)"/>
      <path id="Trazado_1033124" data-name="Trazado 1033124" d="M2.176,33.077h10.6v2H2.176Z" transform="translate(-27.312 31.455) rotate(-73.323)"/>
      <path id="Trazado_1033125" data-name="Trazado 1033125" d="M52,31H38a3,3,0,0,1-3-3V16a5.006,5.006,0,0,1,5-5h9a1,1,0,0,1,.707.293l5,5A1,1,0,0,1,55,17V28A3,3,0,0,1,52,31ZM40,13a3,3,0,0,0-3,3V28a1,1,0,0,0,1,1H52a1,1,0,0,0,1-1V17.414L48.586,13Z"/>
      <path id="Trazado_1033126" data-name="Trazado 1033126" d="M50,24H45a1,1,0,0,1-1-1V16a1,1,0,0,1,1-1h2a1,1,0,0,1,.707.293l3,3A1,1,0,0,1,51,19v4A1,1,0,0,1,50,24Zm-4-2h3V19.414L46.586,17H46Z"/>
      <path id="Trazado_1033127" data-name="Trazado 1033127" d="M44,12H42V7H40v5H38V6a1,1,0,0,1,1-1h4a1,1,0,0,1,1,1Z"/>
      <path id="Trazado_1033128" data-name="Trazado 1033128" d="M45,37A18,18,0,1,1,63,19,18.021,18.021,0,0,1,45,37ZM45,3A16,16,0,1,0,61,19,16.019,16.019,0,0,0,45,3Z"/>
      <path id="Trazado_1033129" data-name="Trazado 1033129" d="M11,25a4,4,0,0,1-4-4V20a1,1,0,0,1,.105-.447l3-6a1.041,1.041,0,0,1,1.789,0l3,6A.99.99,0,0,1,15,20v1a4,4,0,0,1-4,4ZM9,20.236V21a2,2,0,0,0,4,0v-.764l-2-4Z"/>
    </g>
  </g>
</svg>
