<svg xmlns="http://www.w3.org/2000/svg" xmlns:xlink="http://www.w3.org/1999/xlink" width="113" height="113" viewBox="0 0 113 113">
  <defs>
    <filter id="Trazado_982547" x="0" y="0" width="113" height="113" filterUnits="userSpaceOnUse">
      <feOffset dy="3" input="SourceAlpha"/>
      <feGaussianBlur stdDeviation="3" result="blur"/>
      <feFlood flood-opacity="0.161"/>
      <feComposite operator="in" in2="blur"/>
      <feComposite in="SourceGraphic"/>
    </filter>
  </defs>
  <g id="Grupo_1176808" data-name="Grupo 1176808" transform="translate(-201.475 -7408)">
    <g id="Grupo_1176779" data-name="Grupo 1176779" transform="translate(-1015.025 6109.855)">
      <g id="Grupo_1171049" data-name="Grupo 1171049" transform="translate(1225.5 1304.145)">
        <g id="Grupo_1148525" data-name="Grupo 1148525" transform="translate(0)">
          <g transform="matrix(1, 0, 0, 1, -9, -6)" filter="url(#Trazado_982547)">
            <g id="Trazado_982547-2" data-name="Trazado 982547" transform="translate(9 6)" fill="#f2f8ff">
              <path d="M 47.5 93.5 C 41.28937149047852 93.5 35.26533508300781 92.28397369384766 29.59518623352051 89.88570404052734 C 24.11771965026855 87.56893157958984 19.19813346862793 84.25196075439453 14.97309303283691 80.02691650390625 C 10.74804019927979 75.80186462402344 7.431066513061523 70.88229370117188 5.114293098449707 65.40481567382812 C 2.716026782989502 59.73468017578125 1.5 53.71062850952148 1.5 47.5 C 1.5 41.28937149047852 2.716026782989502 35.26533508300781 5.114293098449707 29.59518623352051 C 7.431066513061523 24.11771965026855 10.74804019927979 19.19813346862793 14.97309303283691 14.97309303283691 C 19.19813346862793 10.74804019927979 24.11771965026855 7.431066513061523 29.59518623352051 5.114293098449707 C 35.26533508300781 2.716026782989502 41.28937149047852 1.5 47.5 1.5 C 53.71062850952148 1.5 59.73468017578125 2.716026782989502 65.40481567382812 5.114293098449707 C 70.88229370117188 7.431066513061523 75.80186462402344 10.74804019927979 80.02691650390625 14.97309303283691 C 84.25196075439453 19.19813346862793 87.56893157958984 24.11771965026855 89.88570404052734 29.59518623352051 C 92.28397369384766 35.26533508300781 93.5 41.28937149047852 93.5 47.5 C 93.5 53.71062850952148 92.28397369384766 59.73468017578125 89.88570404052734 65.40481567382812 C 87.56893157958984 70.88229370117188 84.25196075439453 75.80186462402344 80.02691650390625 80.02691650390625 C 75.80186462402344 84.25196075439453 70.88229370117188 87.56893157958984 65.40481567382812 89.88570404052734 C 59.73468017578125 92.28397369384766 53.71062850952148 93.5 47.5 93.5 Z" stroke="none"/>
              <path d="M 47.5 3 C 41.49121475219727 3 35.66376876831055 4.176155090332031 30.17950439453125 6.495796203613281 C 24.88084411621094 8.736953735351562 20.12152099609375 11.94598388671875 16.03375244140625 16.03375244140625 C 11.94598388671875 20.12152099609375 8.736953735351562 24.88084411621094 6.495796203613281 30.17950439453125 C 4.176155090332031 35.66376876831055 3 41.49121475219727 3 47.5 C 3 53.50878524780273 4.176155090332031 59.33623123168945 6.495796203613281 64.82049560546875 C 8.736953735351562 70.11915588378906 11.94598388671875 74.87847900390625 16.03375244140625 78.96624755859375 C 20.12152099609375 83.05401611328125 24.88084411621094 86.26304626464844 30.17950439453125 88.50419616699219 C 35.66376876831055 90.82384490966797 41.49121475219727 92 47.5 92 C 53.50878524780273 92 59.33623123168945 90.82384490966797 64.82049560546875 88.50419616699219 C 70.11915588378906 86.26304626464844 74.87847900390625 83.05401611328125 78.96624755859375 78.96624755859375 C 83.05401611328125 74.87847900390625 86.26304626464844 70.11915588378906 88.50419616699219 64.82049560546875 C 90.82384490966797 59.33623123168945 92 53.50878524780273 92 47.5 C 92 41.49121475219727 90.82384490966797 35.66376876831055 88.50419616699219 30.17950439453125 C 86.26304626464844 24.88084411621094 83.05401611328125 20.12152099609375 78.96624755859375 16.03375244140625 C 74.87847900390625 11.94598388671875 70.11915588378906 8.736953735351562 64.82049560546875 6.495796203613281 C 59.33623123168945 4.176155090332031 53.50878524780273 3 47.5 3 M 47.5 0 C 73.7335205078125 0 95 21.2664794921875 95 47.5 C 95 73.7335205078125 73.7335205078125 95 47.5 95 C 21.2664794921875 95 0 73.7335205078125 0 47.5 C 0 21.2664794921875 21.2664794921875 0 47.5 0 Z" stroke="none" fill="#2d3bf3"/>
            </g>
          </g>
        </g>
      </g>
    </g>
    <g id="mechanic_18208091" transform="translate(227.794 7424.681)">
      <path id="Trazado_1033054" data-name="Trazado 1033054" d="M342.579,324.777a8.642,8.642,0,0,1-1.083,2.61l.5.839.608,1.019a10.672,10.672,0,0,1-2.072,2.072l-1.019-.608-.839-.5a8.646,8.646,0,0,1-2.61,1.083l-.237.946-.291,1.153a10.763,10.763,0,0,1-2.931,0l-.295-1.153-.237-.946a8.646,8.646,0,0,1-2.61-1.083l-.836.5-1.023.608a10.672,10.672,0,0,1-2.072-2.072l.608-1.019.5-.839a8.731,8.731,0,0,1-1.083-2.61l-.942-.237-1.156-.291a10.754,10.754,0,0,1,0-2.931l1.156-.294.942-.237a8.73,8.73,0,0,1,1.083-2.61l-.5-.836-.608-1.023a10.674,10.674,0,0,1,2.072-2.072l1.023.608.836.5a8.731,8.731,0,0,1,2.61-1.083l.237-.943.295-1.156a10.751,10.751,0,0,1,2.931,0l.291,1.156.237.943a8.731,8.731,0,0,1,2.61,1.083l.839-.5,1.019-.608a10.672,10.672,0,0,1,2.072,2.072L342,317.341l-.5.836a8.641,8.641,0,0,1,1.083,2.61l.946.237,1.153.294a10.754,10.754,0,0,1,0,2.931l-1.154.29Z" transform="translate(-285.236 -268.739)" fill="#3f5163" fill-rule="evenodd"/>
      <path id="Trazado_1033055" data-name="Trazado 1033055" d="M376.083,358.909a5.879,5.879,0,1,1-5.879-5.879,5.879,5.879,0,0,1,5.879,5.879Z" transform="translate(-321.371 -304.866)" fill="#d5e3f2" fill-rule="evenodd"/>
      <path id="Trazado_1033056" data-name="Trazado 1033056" d="M269.995,27.586a7.491,7.491,0,0,1-2.3-7.644,7.658,7.658,0,0,1,6.26-5.542l-1.815,6.769,2.423,2.42,3.306-.886,1.815-6.768a7.668,7.668,0,0,1,2.651,7.931,7.494,7.494,0,0,1-5.816,5.468l-3.543,13.229a5.768,5.768,0,1,1-6.524-1.748Z" transform="translate(-231.76 -6.164)" fill="#b7cfe8" fill-rule="evenodd"/>
      <path id="Trazado_1033057" data-name="Trazado 1033057" d="M293.731,263.167a2.483,2.483,0,1,1-3.038,1.755A2.483,2.483,0,0,1,293.731,263.167Z" transform="translate(-256.346 -225.525)" fill="#d5e3f2" fill-rule="evenodd"/>
      <path id="Trazado_1033058" data-name="Trazado 1033058" d="M42.763,323.846c-.689-20.906-5.522-16.354-15.314-23.226H22.3a36.513,36.513,0,0,1-5.451,3.128c-6.163,2.951-9.315,3.52-9.863,20.1Z" transform="translate(-6.169 -258.636)" fill="#2c3947" fill-rule="evenodd"/>
      <path id="Trazado_1033059" data-name="Trazado 1033059" d="M42.763,455.793c-.071-2.109-.181-3.957-.338-5.588H7.328c-.154,1.631-.267,3.479-.338,5.588Z" transform="translate(-6.169 -390.584)" fill="#faba7b" fill-rule="evenodd"/>
      <path id="Trazado_1033060" data-name="Trazado 1033060" d="M126.725,256.113h7.54v6.655a3.77,3.77,0,0,1-7.54,0Z" transform="translate(-111.786 -219.377)" fill="#f5ad65" fill-rule="evenodd"/>
      <path id="Trazado_1033061" data-name="Trazado 1033061" d="M53.025,402.835H77.942v11.173H53.025Z" transform="translate(-46.776 -348.799)" fill="#3f5163"/>
      <path id="Trazado_1033062" data-name="Trazado 1033062" d="M58.775,173.8a3.144,3.144,0,1,1-4.285,1.183A3.144,3.144,0,0,1,58.775,173.8Zm18.383,0a3.144,3.144,0,1,1-4.285,1.183A3.144,3.144,0,0,1,77.158,173.8Z" transform="translate(-47.707 -146.404)" fill="#f5ad65" fill-rule="evenodd"/>
      <path id="Trazado_1033063" data-name="Trazado 1033063" d="M134.266,261.451a10.715,10.715,0,0,1-7.54,0v-5.338h7.54Z" transform="translate(-111.787 -219.377)" fill="#e6a059" fill-rule="evenodd"/>
      <path id="Trazado_1033064" data-name="Trazado 1033064" d="M95.383,94.014a9.77,9.77,0,1,1-19.539,0V83.619A5.937,5.937,0,0,1,81.763,77.7h7.7a5.937,5.937,0,0,1,5.919,5.919V94.014Z" transform="translate(-66.904 -62)" fill="#faba7b" fill-rule="evenodd"/>
      <path id="Trazado_1033065" data-name="Trazado 1033065" d="M81.763,77.7h7.7a5.937,5.937,0,0,1,5.919,5.919V87.1l-2.075,3.984a.854.854,0,0,1-.873.531,32.646,32.646,0,0,0-13.643,0,.855.855,0,0,1-.876-.531L75.844,87.1v-3.48A5.937,5.937,0,0,1,81.763,77.7Z" transform="translate(-66.905 -62)" fill="#2c3947" fill-rule="evenodd"/>
      <path id="Trazado_1033066" data-name="Trazado 1033066" d="M78.792,161.926a32.647,32.647,0,0,1,13.643,0,.854.854,0,0,0,.873-.531l2.075-3.984H75.844l2.072,3.984a.855.855,0,0,0,.876.531Z" transform="translate(-66.905 -132.313)" fill="#3f5163" fill-rule="evenodd"/>
      <path id="Trazado_1033067" data-name="Trazado 1033067" d="M126.3,107.493h7.641v2.37H126.3Z" transform="translate(-111.412 -88.28)" fill="#d5e3f2"/>
      <g id="Grupo_1176791" data-name="Grupo 1176791" transform="translate(0.821 8.236)">
        <path id="Trazado_1033068" data-name="Trazado 1033068" d="M74.553,320.881v10.4a1.826,1.826,0,0,1-1.821,1.822h-.2a1.826,1.826,0,0,1-1.822-1.822v-8.54c.729-.361,1.511-.719,2.35-1.12.478-.231.976-.475,1.491-.739Z" transform="translate(-63.199 -284.744)" fill="#ffab02" fill-rule="evenodd"/>
        <path id="Trazado_1033069" data-name="Trazado 1033069" d="M214.087,320.857v10.4a1.826,1.826,0,0,0,1.822,1.822h.2a1.826,1.826,0,0,0,1.821-1.822v-8.54c-1.146-.565-2.423-1.126-3.844-1.862Z" transform="translate(-189.668 -284.723)" fill="#ffab02" fill-rule="evenodd"/>
        <path id="Trazado_1033070" data-name="Trazado 1033070" d="M103.283,310.546c.9-.434,1.868-.919,2.9-1.514a3.712,3.712,0,0,1-.137-1.006v-.6c-.973.622-1.9,1.136-2.764,1.588Z" transform="translate(-91.929 -272.872)" fill="#1f2a36" fill-rule="evenodd"/>
        <path id="Trazado_1033071" data-name="Trazado 1033071" d="M74.553,322.422v-1.537c-.515.264-1.013.508-1.491.739-.839.4-1.621.759-2.35,1.12v1.587c1.1-.645,2.35-1.2,3.76-1.872C74.5,322.446,74.527,322.436,74.553,322.422Z" transform="translate(-63.199 -284.748)" fill="#ed9e00" fill-rule="evenodd"/>
        <path id="Trazado_1033072" data-name="Trazado 1033072" d="M17.03,338.208v-1.591c-3.944,1.949-6.28,3.961-7.176,13.393h1.494c.832-7.587,2.691-10.047,5.682-11.8Z" transform="translate(-9.516 -298.625)" fill="#1f2a36" fill-rule="evenodd"/>
        <path id="Trazado_1033073" data-name="Trazado 1033073" d="M8.822,450.2H7.328c-.127,1.33-.224,2.808-.294,4.449-.013.371-.03.752-.044,1.14H8.431C8.518,453.666,8.648,451.818,8.822,450.2Z" transform="translate(-6.99 -398.816)" fill="#f5ad65" fill-rule="evenodd"/>
        <path id="Trazado_1033074" data-name="Trazado 1033074" d="M78.685,160.255,77.2,157.411h-1.36l.993,1.909,1.08,2.075a.855.855,0,0,0,.876.531c.234-.05.468-.1.705-.144a.7.7,0,0,0,.08-.017,1.017,1.017,0,0,1-.107-.1,1.287,1.287,0,0,1-.194-.271Z" transform="translate(-67.725 -140.549)" fill="#334454" fill-rule="evenodd"/>
        <path id="Trazado_1033075" data-name="Trazado 1033075" d="M77.206,87.1v-3.48A5.937,5.937,0,0,1,83.125,77.7h-1.36a5.937,5.937,0,0,0-5.919,5.919V87.1Z" transform="translate(-67.727 -70.237)" fill="#1f2a36" fill-rule="evenodd"/>
        <path id="Trazado_1033076" data-name="Trazado 1033076" d="M266.454,40.817a5.766,5.766,0,0,0,.558,10.959,5.334,5.334,0,0,0,.625.13,5.766,5.766,0,0,1,.1-10.739l3.546-13.232a7.487,7.487,0,0,1-2.3-7.641,7.684,7.684,0,0,1,4.786-5.177l.194-.715a7.658,7.658,0,0,0-6.26,5.542,7.491,7.491,0,0,0,2.3,7.644Z" transform="translate(-232.583 -14.403)" fill="#a7bed6" fill-rule="evenodd"/>
        <path id="Trazado_1033077" data-name="Trazado 1033077" d="M368.17,27.414l-1.815,6.768-3.306.886.545.545,4.044-1.083,1.624-6.06a7.423,7.423,0,0,0-1.093-1.056Z" transform="translate(-321.067 -25.88)" fill="#a7bed6" fill-rule="evenodd"/>
        <path id="Trazado_1033078" data-name="Trazado 1033078" d="M333.412,314.267l.237-.943.291-1.156c.264-.033.532-.06.8-.077-.217-.013-.441-.024-.665-.024a11.085,11.085,0,0,0-1.464.1l-.295,1.156-.237.943a8.626,8.626,0,0,0-1.922.7l.645.384a8.73,8.73,0,0,1,2.61-1.083Zm0,17.019a8.646,8.646,0,0,1-2.61-1.083l-.645.388a8.779,8.779,0,0,0,1.922.7l.237.946.295,1.153a11.107,11.107,0,0,0,1.464.1c.224,0,.448-.007.668-.02q-.406-.025-.8-.08l-.291-1.153Zm-5.933-13.951-.608-1.023a10.768,10.768,0,0,1,1.507-1.614l-.769-.458a10.674,10.674,0,0,0-2.072,2.072l.608,1.023.5.836a8.73,8.73,0,0,0-1.083,2.61l-.942.237-1.156.294a10.754,10.754,0,0,0,0,2.931l1.156.291.942.237a8.73,8.73,0,0,0,1.083,2.61l-.5.839-.608,1.019a10.673,10.673,0,0,0,2.072,2.072l.769-.458a10.779,10.779,0,0,1-1.507-1.614l.608-1.019.5-.839a8.645,8.645,0,0,1-1.083-2.61l-.946-.237-1.153-.291a10.767,10.767,0,0,1,0-2.931l1.153-.294.946-.237a8.644,8.644,0,0,1,1.083-2.61Z" transform="translate(-286.061 -276.971)" fill="#334454" fill-rule="evenodd"/>
      </g>
      <path id="Trazado_1033079" data-name="Trazado 1033079" d="M48.832,47.338a6.7,6.7,0,1,0,6.7,6.7A6.7,6.7,0,0,0,48.832,47.338Zm0,11.758a5.053,5.053,0,1,1,5.053-5.053A5.053,5.053,0,0,1,48.832,59.1ZM35.884,43.232a3.307,3.307,0,1,0-2.336-4.051A3.332,3.332,0,0,0,35.884,43.232Zm-.743-3.62a1.655,1.655,0,1,1,.68,1.8A1.665,1.665,0,0,1,35.141,39.612ZM60.259,52.467a.825.825,0,0,0-.617-.693l-1.626-.409a9.439,9.439,0,0,0-.8-1.923L58.078,48a.825.825,0,0,0-.051-.92,11.488,11.488,0,0,0-2.233-2.233.825.825,0,0,0-.92-.051l-1.442.86a9.539,9.539,0,0,0-1.923-.8L51.1,43.232a.825.825,0,0,0-.693-.617,11.514,11.514,0,0,0-3.15,0,.825.825,0,0,0-.693.617l-.409,1.627a9.544,9.544,0,0,0-1.923.8L42.79,44.8a.825.825,0,0,0-.92.051,11.488,11.488,0,0,0-2.233,2.233.825.825,0,0,0-.051.92l.86,1.442a9.526,9.526,0,0,0-.8,1.923l-1.627.409a.825.825,0,0,0-.617.692,11.606,11.606,0,0,0,0,3.151.825.825,0,0,0,.617.692l1.626.409a9.529,9.529,0,0,0,.8,1.923l-.86,1.442a.825.825,0,0,0,.051.92,11.494,11.494,0,0,0,2.233,2.233.825.825,0,0,0,.92.051l1.442-.86a9.437,9.437,0,0,0,1.923.8l.409,1.626a.825.825,0,0,0,.692.617,11.605,11.605,0,0,0,3.151,0,.825.825,0,0,0,.692-.616l.409-1.626a9.438,9.438,0,0,0,1.923-.8l1.442.86a.825.825,0,0,0,.92-.051A11.491,11.491,0,0,0,58.025,61a.825.825,0,0,0,.051-.92l-.858-1.441a9.437,9.437,0,0,0,.8-1.923l1.626-.409a.825.825,0,0,0,.617-.692,11.614,11.614,0,0,0,0-3.15Zm-1.578,2.382-1.541.387a.825.825,0,0,0-.6.614,7.811,7.811,0,0,1-.98,2.361.825.825,0,0,0-.007.861l.816,1.364a9.827,9.827,0,0,1-1.14,1.14l-1.364-.816a.825.825,0,0,0-.861.007,7.809,7.809,0,0,1-2.361.98.825.825,0,0,0-.614.6l-.387,1.541a9.662,9.662,0,0,1-1.614,0l-.387-1.541a.825.825,0,0,0-.614-.6,7.808,7.808,0,0,1-2.361-.98.825.825,0,0,0-.861-.007l-1.364.816a9.855,9.855,0,0,1-1.14-1.14l.816-1.364a.825.825,0,0,0-.007-.861,7.9,7.9,0,0,1-.98-2.364.825.825,0,0,0-.6-.611l-1.542-.388c-.023-.274-.034-.541-.034-.807s.011-.532.034-.807l1.542-.388a.825.825,0,0,0,.6-.611,7.9,7.9,0,0,1,.981-2.364.825.825,0,0,0,.007-.861L41.3,47.647a9.836,9.836,0,0,1,1.14-1.14l1.364.816a.825.825,0,0,0,.861-.007,7.9,7.9,0,0,1,2.364-.98.825.825,0,0,0,.611-.6l.388-1.542a9.651,9.651,0,0,1,1.614,0l.388,1.542a.825.825,0,0,0,.611.6A7.9,7.9,0,0,1,53,47.316a.826.826,0,0,0,.861.007l1.364-.816a9.847,9.847,0,0,1,1.14,1.14l-.816,1.364a.825.825,0,0,0,.007.861,7.81,7.81,0,0,1,.98,2.361.825.825,0,0,0,.6.614l1.541.387c.023.275.034.542.034.807s-.011.533-.034.808ZM35.036,46.406a6.593,6.593,0,0,0,7.081-10.185l3.31-12.361a8.253,8.253,0,0,0,5.943-5.945,8.5,8.5,0,0,0-2.939-8.794.825.825,0,0,0-1.306.436l-1.691,6.308L43.05,16.5,41.3,14.756l1.691-6.3a.825.825,0,0,0-.912-1.031,8.494,8.494,0,0,0-6.942,6.145,8.356,8.356,0,0,0,2.172,8.12L34,34.047a6.591,6.591,0,0,0,1.038,12.36ZM31.97,38.761a4.962,4.962,0,0,1,3.016-3.339.825.825,0,0,0,.5-.558l3.543-13.228a.825.825,0,0,0-.25-.83,6.637,6.637,0,0,1-2.049-6.813,6.84,6.84,0,0,1,4.3-4.625l-1.454,5.421a.826.826,0,0,0,.214.8l2.423,2.423a.825.825,0,0,0,.8.214l3.305-.886a.825.825,0,0,0,.584-.584l1.455-5.425a6.849,6.849,0,0,1,1.416,6.159,6.649,6.649,0,0,1-5.184,4.873.825.825,0,0,0-.632.6L40.418,36.185a.826.826,0,0,0,.157.734,4.941,4.941,0,1,1-8.605,1.842Zm-3.935,6.051c-.75-.353-1.549-.729-2.4-1.166l-.016-.008c-.737-.381-1.51-.809-2.32-1.309v-.768A10.63,10.63,0,0,0,29.136,33.9a3.968,3.968,0,0,0,.168-7.484V21.62a6.752,6.752,0,0,0-6.744-6.744h-7.7A6.754,6.754,0,0,0,8.111,21.62v4.794A3.969,3.969,0,0,0,8.279,33.9a10.63,10.63,0,0,0,5.834,7.662v.769a38.807,38.807,0,0,1-3.786,2.038c-.325.156-.642.305-.951.45-.468.22-.92.433-1.355.647a.821.821,0,0,0-.1.049,10.864,10.864,0,0,0-5.249,4.56C1.052,52.968.251,57.487,0,65.181a.825.825,0,0,0,.825.853H36.593a.825.825,0,0,0,.825-.853c-.254-7.7-1.055-12.216-2.678-15.112-1.6-2.855-3.854-3.914-6.706-5.256ZM29.3,28.283a2.317,2.317,0,0,1,0,3.689ZM8.111,31.967a2.311,2.311,0,0,1,0-3.683ZM26.065,45.705c.436.211.859.41,1.266.6.319.15.628.295.926.439V54.77a1,1,0,0,1-1,1h-.2a1,1,0,0,1-1-1ZM9.762,21.62a5.1,5.1,0,0,1,5.1-5.094h7.7a5.1,5.1,0,0,1,5.094,5.094v2.65H9.762Zm17.357,4.3L25.671,28.7a.417.417,0,0,1-.056.083,34.129,34.129,0,0,0-6.923-.714,33.642,33.642,0,0,0-6.883.713.42.42,0,0,1-.064-.081L10.3,25.921ZM9.762,32.014V28.468l.518,1a1.714,1.714,0,0,0,1.479.987,1.388,1.388,0,0,0,.3-.032,32.1,32.1,0,0,1,13.3,0,1.652,1.652,0,0,0,1.78-.953l.518-.994v3.544a8.956,8.956,0,0,1-5.415,8.217.826.826,0,0,0-.153.063,8.923,8.923,0,0,1-6.763,0,.816.816,0,0,0-.139-.058,8.956,8.956,0,0,1-5.42-8.218ZM21.65,42.193v1.2a2.943,2.943,0,1,1-5.886,0v-1.2a10.616,10.616,0,0,0,5.886,0ZM13,44.872c.381-.2.777-.423,1.188-.662a4.592,4.592,0,0,0,9.039,0q.609.353,1.187.66V53.21H13Zm-3.84,1.875c.3-.142.6-.287.92-.436s.632-.3.96-.455l.309-.149V54.77a1,1,0,0,1-1,1h-.2a1,1,0,0,1-1-1ZM5.424,64.383H1.678c.057-1.425.135-2.733.236-3.937h3.51Zm0-10.347v4.759H2.075c.406-3.646,1.068-6.18,2.04-7.915A8.33,8.33,0,0,1,7.509,47.6V53.21H6.25a.825.825,0,0,0-.825.826ZM30.34,64.383H7.075V54.861h.437a2.65,2.65,0,0,0,2.645,2.557h.2A2.65,2.65,0,0,0,13,54.861H24.417a2.65,2.65,0,0,0,2.645,2.557h.2a2.65,2.65,0,0,0,2.645-2.557h.433Zm5.4,0H31.991V60.446H35.5C35.6,61.649,35.68,62.958,35.737,64.383Zm-3.746-5.588V54.035a.825.825,0,0,0-.825-.825H29.909V47.6A8.325,8.325,0,0,1,33.3,50.876c.973,1.735,1.635,4.271,2.041,7.918ZM22.529,18.388H14.888a.825.825,0,0,0-.825.825v2.37a.825.825,0,0,0,.825.825h7.641a.825.825,0,0,0,.825-.825v-2.37a.825.825,0,0,0-.825-.825Zm-.825,2.37h-5.99v-.719H21.7Zm4.625,33.693a.825.825,0,0,1,.825-.825h.013a.825.825,0,1,1,0,1.651h-.013a.825.825,0,0,1-.825-.826Zm-16.9,0a.821.821,0,0,1,.821-.825h.01a.825.825,0,1,1-.831.825Z" transform="translate(0 0)"/>
    </g>
  </g>
</svg>
